<svg width="477" height="382" viewBox="0 0 477 382" fill="none" xmlns="http://www.w3.org/2000/svg">
<path d="M229.694 163.647C225.611 162.504 223.205 158.229 224.347 154.146L245.429 78.8041C246.572 74.7211 250.847 72.3151 254.93 73.4571C259.013 74.6001 261.419 78.8751 260.277 82.9581L239.195 158.3C238.052 162.383 233.777 164.789 229.694 163.647Z" fill="#013819"/>
<path d="M291.405 53.7362C293.806 57.2312 292.91 62.0552 289.415 64.4552L259.051 84.4502C255.556 86.8512 250.732 85.9552 248.332 82.4602C245.931 78.9652 246.827 74.1412 250.322 71.7412L280.686 51.7462C284.18 49.3462 289.004 50.2412 291.405 53.7362Z" fill="#013819"/>
<path d="M266.624 83.0189C264.565 90.3779 256.93 94.674 249.572 92.615C242.213 90.556 237.917 82.921 239.976 75.563C242.035 68.204 249.67 63.908 257.028 65.967C264.387 68.025 268.683 75.6599 266.624 83.0189Z" fill="#013819"/>
<path d="M261.911 81.7001C260.58 86.4571 255.645 89.2341 250.888 87.9031C246.131 86.5721 243.354 81.6371 244.685 76.8801C246.016 72.1231 250.951 69.3461 255.708 70.6771C260.465 72.0081 263.242 76.9431 261.911 81.7001Z" fill="#082229"/>
<path d="M300.999 64.7652L293.282 68.6051C287.243 71.6101 279.844 69.1271 276.839 63.0891C273.834 57.0501 276.317 49.6511 282.355 46.6461L290.072 42.8062L300.999 64.7652Z" fill="#013819"/>
<path d="M300.883 49.489L308.934 65.132L324.435 65.148L332.554 52.208L325.974 51.787L320.865 58.685L312.876 58.677L306.626 46.533L300.883 49.489Z" fill="#013819"/>
<path d="M419.553 95.0001H331.971C325.89 95.0001 320.914 90.0241 320.914 83.9431V33.6061C320.914 27.5251 325.89 22.5491 331.971 22.5491H419.553C425.634 22.5491 430.61 27.5251 430.61 33.6061V83.9431C430.61 90.0241 425.634 95.0001 419.553 95.0001Z" fill="#FFFDFF"/>
<path d="M375.762 63.048L320.914 33.606V39.796L375.762 67.495L430.61 39.796V33.606L375.762 63.048Z" fill="#D9D7D9"/>
<path d="M383.57 63.5511L429.699 88.3131C430.282 86.9701 430.609 85.4931 430.609 83.9421V82.6121L388.218 61.2041L383.57 63.5511Z" fill="#BDBBBD"/>
<path d="M367.953 63.5521L363.305 61.2051L320.914 82.6131V83.9431C320.914 85.4941 321.241 86.9711 321.824 88.3141L367.953 63.5521Z" fill="#BDBBBD"/>
<path opacity="0.15" d="M419.553 22.5491H331.971C325.89 22.5491 320.914 27.5251 320.914 33.6061V83.9431C320.914 90.0241 325.89 95.0001 331.971 95.0001H419.553C425.634 95.0001 430.61 90.0241 430.61 83.9431V33.6061C430.61 27.5251 425.634 22.5491 419.553 22.5491ZM429.496 33.5871L425.158 78.8171C424.681 83.7921 419.894 87.7911 414.513 87.7911H337.011C331.63 87.7911 326.843 83.7921 326.366 78.8171L322.028 33.5871C321.452 27.5791 325.941 22.5671 332.016 22.5671H419.507C425.583 22.5671 430.073 27.5791 429.496 33.5871Z" fill="black"/>
<path d="M301.133 44.5641L305.549 27.5341L320.667 24.1101L331.432 34.9491L325.105 36.8061L318.605 31.1991L310.813 32.9641L307.385 46.1851L301.133 44.5641Z" fill="#013819"/>
<path d="M307.737 60.097C302.256 62.824 295.601 60.592 292.874 55.111C290.147 49.63 292.379 42.975 297.86 40.248C303.341 37.521 309.996 39.753 312.723 45.234C315.451 50.716 313.219 57.37 307.737 60.097Z" fill="#013819"/>
<path d="M312.721 45.234C309.994 39.753 303.339 37.52 297.858 40.248C297.786 40.284 297.72 40.328 297.649 40.365C297.622 43.76 298.512 47.618 300.381 51.374C302.25 55.13 304.79 58.167 307.515 60.193C307.588 60.159 307.662 60.133 307.735 60.097C313.216 57.37 315.448 50.716 312.721 45.234Z" fill="#013819"/>
<path d="M307.084 39.959C306.448 42.445 306.659 45.16 307.892 47.637C309.125 50.115 311.163 51.92 313.53 52.912C314.166 50.426 313.955 47.711 312.722 45.234C311.489 42.757 309.451 40.952 307.084 39.959Z" fill="#013819"/>
<path d="M296.568 65.529L286.792 45.883C285.903 44.097 286.638 41.908 288.424 41.019C290.21 40.13 292.399 40.865 293.288 42.651L303.064 62.297C303.953 64.083 303.219 66.272 301.432 67.161C299.645 68.05 297.457 67.315 296.568 65.529Z" fill="#013819"/>
<path d="M306.585 120.375C307.656 116.272 311.888 113.792 315.991 114.862L391.692 134.618C395.795 135.689 398.275 139.921 397.205 144.024C396.134 148.127 391.902 150.607 387.799 149.537L312.098 129.781C307.995 128.71 305.514 124.477 306.585 120.375Z" fill="#013819"/>
<path d="M417.562 180.15C414.11 182.612 409.271 181.801 406.809 178.349L386.284 148.341C383.822 144.889 384.633 140.05 388.085 137.588C391.537 135.126 396.376 135.937 398.838 139.389L419.363 169.397C421.825 172.85 421.014 177.688 417.562 180.15Z" fill="#013819"/>
<path d="M403.207 149.606C407.138 143.054 405.013 134.555 398.461 130.623C391.908 126.692 383.41 128.817 379.478 135.369C375.546 141.922 377.671 150.421 384.224 154.352C390.776 158.284 399.275 156.159 403.207 149.606Z" fill="#013819"/>
<path d="M389.086 151.149C384.307 149.902 381.443 145.016 382.691 140.237C383.938 135.458 388.824 132.594 393.603 133.842C398.382 135.089 401.246 139.975 399.998 144.754C398.751 149.533 393.866 152.396 389.086 151.149Z" fill="#082229"/>
<path d="M406.708 189.934L402.733 182.285C399.623 176.3 401.975 168.858 407.96 165.748C413.945 162.638 421.387 164.99 424.497 170.975L428.472 178.624L406.708 189.934Z" fill="#013819"/>
<path d="M421.976 189.549L406.477 197.873L406.733 213.372L419.813 221.263L420.119 214.677L413.131 209.69L413 201.702L425.032 195.239L421.976 189.549Z" fill="#013819"/>
<path d="M469.354 226.519C469.354 214.311 459.457 204.415 447.249 204.415C437.594 204.415 429.406 210.616 426.395 219.245C423.384 210.616 415.197 204.415 405.542 204.415C393.334 204.415 383.438 214.311 383.438 226.519C383.438 232.983 386.229 238.781 390.652 242.823H390.617L426.395 276.858L462.173 242.823H462.138C466.562 238.781 469.354 232.983 469.354 226.519Z" fill="#FF6B5D"/>
<path opacity="0.15" d="M462.139 231.508H462.174L426.396 265.543L390.618 231.508H390.653C387.578 228.698 385.295 225.039 384.187 220.899C383.715 222.697 383.438 224.573 383.438 226.519C383.438 232.983 386.23 238.781 390.653 242.823H390.618L426.396 276.858L462.174 242.823H462.139C466.562 238.781 469.354 232.983 469.354 226.519C469.354 224.573 469.077 222.697 468.605 220.899C467.497 225.04 465.214 228.699 462.139 231.508Z" fill="black"/>
<path d="M426.91 189.71L444.015 193.826L447.703 208.882L437.054 219.835L435.086 213.543L440.579 206.945L438.677 199.185L425.398 195.99L426.91 189.71Z" fill="#013819"/>
<path d="M411.493 196.588C408.67 191.156 410.785 184.463 416.218 181.64C421.651 178.817 428.343 180.932 431.166 186.365C433.989 191.797 431.874 198.49 426.441 201.313C421.009 204.136 414.316 202.021 411.493 196.588Z" fill="#013819"/>
<path d="M426.438 201.313C431.871 198.49 433.986 191.797 431.163 186.365C431.126 186.293 431.081 186.229 431.042 186.158C427.647 186.191 423.805 187.149 420.083 189.083C416.361 191.017 413.369 193.611 411.391 196.37C411.427 196.442 411.453 196.516 411.491 196.588C414.313 202.021 421.006 204.136 426.438 201.313Z" fill="#013819"/>
<path d="M431.619 195.584C429.122 194.992 426.412 195.25 423.956 196.526C421.5 197.802 419.731 199.872 418.781 202.255C421.278 202.847 423.988 202.589 426.444 201.313C428.899 200.037 430.668 197.967 431.619 195.584Z" fill="#013819"/>
<path d="M405.866 185.515L425.338 175.396C427.108 174.476 429.309 175.172 430.23 176.942C431.15 178.712 430.454 180.913 428.684 181.833L409.212 191.952C407.442 192.872 405.241 192.176 404.321 190.406C403.4 188.636 404.096 186.435 405.866 185.515Z" fill="#013819"/>
<path d="M199.444 253.921C202.778 256.541 203.362 261.412 200.742 264.746L152.403 326.262C149.783 329.596 144.912 330.18 141.578 327.561C138.244 324.941 137.66 320.07 140.279 316.736L188.618 255.22C191.239 251.886 196.11 251.302 199.444 253.921Z" fill="#013819"/>
<path d="M100.331 331.801C99.4529 327.653 102.128 323.54 106.276 322.662L141.983 315.826C146.131 314.947 150.244 317.623 151.122 321.771C152 325.919 149.325 330.032 145.177 330.91L109.47 337.746C105.322 338.624 101.21 335.949 100.331 331.801Z" fill="#013819"/>
<path d="M134.442 314.249C139.163 308.241 147.861 307.197 153.87 311.919C159.878 316.64 160.922 325.338 156.2 331.347C151.479 337.355 142.781 338.399 136.772 333.677C130.764 328.955 129.72 320.257 134.442 314.249Z" fill="#013819"/>
<path d="M138.287 317.272C141.339 313.388 146.961 312.714 150.845 315.766C154.729 318.818 155.403 324.44 152.351 328.324C149.299 332.208 143.677 332.882 139.793 329.83C135.91 326.778 135.235 321.155 138.287 317.272Z" fill="#082229"/>
<path d="M95.6953 317.938L104.295 317.348C111.024 316.886 116.908 322.014 117.37 328.743C117.832 335.472 112.704 341.356 105.975 341.818L97.3753 342.408L95.6953 317.938Z" fill="#013819"/>
<path d="M89.9474 332.094L88.5044 314.56L74.1924 308.606L61.7344 317.448L67.6514 320.358L75.0134 315.943L82.3894 319.012L83.5104 332.624L89.9474 332.094Z" fill="#013819"/>
<path d="M59.548 242.501H3.495C1.772 242.501 0.375 243.898 0.375 245.621V335.031C0.375 336.754 1.772 338.151 3.495 338.151H73.033C74.756 338.151 76.153 336.754 76.153 335.031V259.106C70.618 253.571 65.083 248.036 59.548 242.501Z" fill="#FFFDFF"/>
<path d="M59.5469 242.501V255.805C59.5469 257.869 61.2509 259.525 63.3129 259.467L76.1519 259.106L59.5469 242.501Z" fill="#D6D9D9"/>
<path d="M29.8668 274.05H14.7128C12.5288 274.05 10.7578 272.279 10.7578 270.095V254.94C10.7578 252.756 12.5288 250.985 14.7128 250.985H29.8678C32.0518 250.985 33.8228 252.756 33.8228 254.94V270.095C33.8218 272.279 32.0518 274.05 29.8668 274.05Z" fill="#FF6B5D"/>
<path d="M64.3933 285.028H12.1353C11.3433 285.028 10.6953 284.38 10.6953 283.588C10.6953 282.796 11.3433 282.148 12.1353 282.148H64.3933C65.1853 282.148 65.8333 282.796 65.8333 283.588C65.8333 284.38 65.1853 285.028 64.3933 285.028Z" fill="#D6D9D9"/>
<path d="M57.9916 295.652H18.5416C17.7496 295.652 17.1016 295.004 17.1016 294.212C17.1016 293.42 17.7496 292.772 18.5416 292.772H57.9916C58.7836 292.772 59.4316 293.42 59.4316 294.212C59.4306 295.004 58.7826 295.652 57.9916 295.652Z" fill="#D6D9D9"/>
<path d="M64.3933 306.277H12.1353C11.3433 306.277 10.6953 305.629 10.6953 304.837C10.6953 304.045 11.3433 303.397 12.1353 303.397H64.3933C65.1853 303.397 65.8333 304.045 65.8333 304.837C65.8333 305.629 65.1853 306.277 64.3933 306.277Z" fill="#D6D9D9"/>
<path d="M64.3933 327.525H12.1353C11.3433 327.525 10.6953 326.877 10.6953 326.085C10.6953 325.293 11.3433 324.645 12.1353 324.645H64.3933C65.1853 324.645 65.8333 325.293 65.8333 326.085C65.8333 326.878 65.1853 327.525 64.3933 327.525Z" fill="#D6D9D9"/>
<path d="M57.9916 316.901H18.5416C17.7496 316.901 17.1016 316.253 17.1016 315.461C17.1016 314.669 17.7496 314.021 18.5416 314.021H57.9916C58.7836 314.021 59.4316 314.669 59.4316 315.461C59.4306 316.253 58.7826 316.901 57.9916 316.901Z" fill="#D6D9D9"/>
<path d="M87.8351 336.549L77.2311 350.587L61.9551 347.957L56.1641 333.821L62.7191 334.529L66.5761 342.199L74.4491 343.554L82.6811 332.656L87.8351 336.549Z" fill="#013819"/>
<path d="M87.6859 319.669C93.7939 319.25 99.0849 323.861 99.5049 329.969C99.9239 336.077 95.3129 341.368 89.2049 341.788C83.0969 342.207 77.8059 337.596 77.3859 331.488C76.9659 325.379 81.5779 320.088 87.6859 319.669Z" fill="#013819"/>
<path d="M77.3858 331.487C77.8048 337.595 83.0968 342.207 89.2048 341.787C89.2858 341.782 89.3628 341.766 89.4428 341.758C90.7688 338.632 91.4238 334.727 91.1368 330.542C90.8498 326.357 89.6668 322.578 87.9258 319.663C87.8458 319.667 87.7668 319.662 87.6858 319.667C81.5788 320.088 76.9668 325.379 77.3858 331.487Z" fill="#013819"/>
<path d="M80.5715 338.52C82.1115 336.467 82.9565 333.879 82.7675 331.118C82.5785 328.357 81.3865 325.909 79.5815 324.086C78.0415 326.139 77.1965 328.727 77.3855 331.488C77.5745 334.248 78.7655 336.697 80.5715 338.52Z" fill="#013819"/>
<path d="M100.082 318.931L101.585 340.824C101.722 342.815 100.205 344.555 98.2145 344.691C96.2245 344.828 94.4835 343.311 94.3475 341.32L92.8445 319.427C92.7075 317.437 94.2245 315.696 96.2145 315.56C98.2045 315.424 99.9445 316.941 100.082 318.931Z" fill="#013819"/>
<path d="M282.352 236.963C278.546 238.833 276.963 243.476 278.832 247.282L313.333 317.5C315.203 321.306 319.846 322.889 323.652 321.02C327.458 319.15 329.041 314.507 327.172 310.701L292.671 240.483C290.801 236.677 286.158 235.093 282.352 236.963Z" fill="#013819"/>
<path d="M363.118 333.739C364.839 329.864 363.076 325.285 359.201 323.564L325.694 309.457C321.819 307.736 317.24 309.498 315.519 313.373C313.798 317.248 315.56 321.827 319.435 323.548L352.942 337.655C356.817 339.375 361.397 337.613 363.118 333.739Z" fill="#013819"/>
<path d="M333.397 309.481C330.027 302.623 321.736 299.795 314.878 303.165C308.02 306.535 305.192 314.826 308.562 321.684C311.932 328.542 320.223 331.37 327.081 328.001C333.938 324.63 336.766 316.339 333.397 309.481Z" fill="#013819"/>
<path d="M329.012 311.638C326.834 307.205 321.474 305.377 317.041 307.555C312.608 309.733 310.78 315.093 312.958 319.526C315.136 323.959 320.496 325.787 324.929 323.609C329.362 321.431 331.19 316.071 329.012 311.638Z" fill="#082229"/>
<path d="M370.532 321.141L362.243 318.777C355.757 316.927 348.936 320.72 347.086 327.206C345.236 333.692 349.029 340.513 355.515 342.363L363.804 344.727L370.532 321.141Z" fill="#013819"/>
<path d="M373.211 336.182L378.266 319.331L393.503 316.481L403.851 327.718L397.459 329.335L391.175 323.487L383.322 324.956L379.397 338.038L373.211 336.182Z" fill="#013819"/>
<path d="M451.829 356.693C465.733 342.79 465.733 320.247 451.829 306.344C437.926 292.44 415.383 292.44 401.48 306.344C387.576 320.247 387.576 342.79 401.48 356.693C415.383 370.597 437.926 370.597 451.829 356.693Z" fill="#FCFFFF"/>
<path d="M451.088 335.497C453.295 322.003 444.145 309.275 430.651 307.068C417.157 304.862 404.429 314.012 402.222 327.505C400.016 340.999 409.165 353.727 422.659 355.934C436.153 358.141 448.881 348.991 451.088 335.497Z" fill="#FFB715"/>
<path d="M426.661 350.359C437.067 350.359 445.502 341.923 445.502 331.518C445.502 321.112 437.067 312.677 426.661 312.677C416.256 312.677 407.82 321.112 407.82 331.518C407.82 341.923 416.256 350.359 426.661 350.359Z" fill="#9C700C"/>
<path d="M426.662 349.024C436.331 349.024 444.168 341.186 444.168 331.518C444.168 321.85 436.331 314.012 426.662 314.012C416.994 314.012 409.156 321.85 409.156 331.518C409.156 341.186 416.994 349.024 426.662 349.024Z" fill="#CC9211"/>
<path d="M426.386 341.103C424.818 341.103 423.305 340.924 421.844 340.568C420.384 340.212 419.182 339.749 418.238 339.179L420.268 334.584C421.159 335.101 422.147 335.519 423.233 335.84C424.338 336.143 425.406 336.294 426.439 336.294C427.045 336.294 427.516 336.259 427.855 336.187C428.211 336.098 428.469 335.982 428.63 335.84C428.79 335.68 428.87 335.493 428.87 335.279C428.87 334.941 428.683 334.673 428.309 334.478C427.935 334.282 427.436 334.121 426.813 333.997C426.207 333.854 425.54 333.712 424.809 333.569C424.079 333.409 423.34 333.204 422.592 332.955C421.862 332.706 421.185 332.376 420.562 331.967C419.956 331.557 419.467 331.023 419.093 330.364C418.719 329.687 418.532 328.85 418.532 327.853C418.532 326.695 418.852 325.644 419.493 324.7C420.152 323.739 421.123 322.973 422.405 322.403C423.705 321.833 425.317 321.548 427.24 321.548C428.505 321.548 429.752 321.682 430.98 321.949C432.209 322.216 433.313 322.626 434.293 323.178L432.396 327.746C431.47 327.283 430.571 326.935 429.698 326.704C428.843 326.472 428.006 326.357 427.187 326.357C426.581 326.357 426.101 326.41 425.744 326.517C425.388 326.624 425.13 326.766 424.97 326.944C424.827 327.122 424.756 327.318 424.756 327.532C424.756 327.853 424.943 328.111 425.317 328.307C425.691 328.485 426.181 328.636 426.786 328.761C427.41 328.886 428.086 329.019 428.817 329.162C429.565 329.304 430.304 329.5 431.034 329.749C431.764 329.999 432.432 330.328 433.037 330.738C433.661 331.147 434.159 331.682 434.533 332.34C434.907 332.999 435.094 333.819 435.094 334.798C435.094 335.938 434.765 336.989 434.106 337.95C433.465 338.894 432.503 339.66 431.221 340.248C429.939 340.818 428.327 341.103 426.386 341.103ZM425.103 343.881V340.408H428.87V343.881H425.103ZM425.103 322.243V318.77H428.87V322.243H425.103Z" fill="#FFCE61"/>
<path d="M374.352 340.979L381.807 356.915L397.296 357.516L405.898 344.892L399.339 344.223L393.973 350.924L385.99 350.613L380.203 338.242L374.352 340.979Z" fill="#013819"/>
<path d="M378.012 324.499C372.124 322.82 365.99 326.231 364.311 332.119C362.632 338.007 366.043 344.141 371.931 345.82C377.819 347.499 383.953 344.088 385.632 338.2C387.31 332.312 383.899 326.178 378.012 324.499Z" fill="#013819"/>
<path d="M385.631 338.2C383.952 344.088 377.818 347.499 371.93 345.82C371.852 345.798 371.78 345.767 371.703 345.743C371.056 342.41 371.226 338.454 372.376 334.42C373.527 330.386 375.469 326.936 377.777 324.446C377.855 324.466 377.933 324.478 378.01 324.5C383.899 326.178 387.31 332.312 385.631 338.2Z" fill="#013819"/>
<path d="M381.051 344.417C379.971 342.089 379.682 339.382 380.441 336.72C381.2 334.059 382.874 331.911 385.019 330.503C386.099 332.831 386.388 335.538 385.629 338.199C384.87 340.861 383.196 343.009 381.051 344.417Z" fill="#013819"/>
<path d="M366.033 321.201L360.014 342.303C359.467 344.222 360.589 346.239 362.507 346.786C364.426 347.333 366.443 346.211 366.99 344.293L373.009 323.19C373.556 321.271 372.434 319.254 370.516 318.707C368.598 318.16 366.58 319.282 366.033 321.201Z" fill="#013819"/>
<path d="M151.775 225.987C150.704 230.09 146.472 232.57 142.369 231.5L66.6682 211.744C62.5652 210.673 60.0852 206.441 61.1552 202.338C62.2262 198.235 66.4582 195.755 70.5612 196.825L146.262 216.581C150.366 217.651 152.846 221.884 151.775 225.987Z" fill="#013819"/>
<path d="M40.7954 166.211C44.2474 163.749 49.0864 164.56 51.5484 168.012L72.0734 198.02C74.5354 201.472 73.7244 206.311 70.2724 208.773C66.8204 211.235 61.9814 210.424 59.5194 206.972L38.9944 176.964C36.5334 173.512 37.3434 168.673 40.7954 166.211Z" fill="#013819"/>
<path d="M74.2141 215.693C80.7437 211.723 82.8189 203.212 78.8491 196.682C74.8794 190.153 66.3681 188.078 59.8385 192.047C53.3089 196.017 51.2337 204.528 55.2034 211.058C59.1731 217.588 67.6845 219.663 74.2141 215.693Z" fill="#013819"/>
<path d="M71.9211 211.327C76.0472 208.612 77.1909 203.065 74.4756 198.939C71.7602 194.813 66.2142 193.67 62.0881 196.385C57.962 199.1 56.8184 204.646 59.5337 208.772C62.249 212.899 67.7951 214.042 71.9211 211.327Z" fill="#082229"/>
<path d="M51.6546 156.427L55.6296 164.076C58.7396 170.061 56.3876 177.503 50.4026 180.613C44.4176 183.723 36.9756 181.371 33.8656 175.386L29.8906 167.737L51.6546 156.427Z" fill="#013819"/>
<path d="M36.3851 156.812L51.8841 148.488L51.6281 132.989L38.5481 125.098L38.2421 131.685L45.2291 136.672L45.3611 144.66L33.3281 151.122L36.3851 156.812Z" fill="#013819"/>
<path d="M37.968 138.078C58.9371 138.078 75.936 121.079 75.936 100.11C75.936 79.1409 58.9371 62.1421 37.968 62.1421C16.9989 62.1421 0 79.1409 0 100.11C0 121.079 16.9989 138.078 37.968 138.078Z" fill="#FFB715"/>
<path d="M26.8147 118.745C25.9187 118.745 25.0517 118.262 24.6037 117.415C23.9577 116.195 24.4227 114.682 25.6427 114.036L51.9347 100.109L24.4697 85.5371C23.2497 84.8891 22.7857 83.3761 23.4327 82.1571C24.0797 80.9361 25.5927 80.4731 26.8127 81.1201L58.4437 97.9031C59.2607 98.3371 59.7727 99.1871 59.7717 100.113C59.7707 101.038 59.2597 101.888 58.4417 102.321L27.9827 118.455C27.6107 118.651 27.2097 118.745 26.8147 118.745Z" fill="#FCFFFF"/>
<path d="M32.4456 110.432L25.6426 114.036C24.4226 114.682 23.9576 116.195 24.6036 117.415C25.0516 118.262 25.9186 118.745 26.8146 118.745C27.2096 118.745 27.6096 118.651 27.9826 118.453L34.7826 114.851C34.4846 113.131 33.6476 111.597 32.4456 110.432Z" fill="#DEE0E0"/>
<path d="M58.4473 97.902L49.5413 93.177C48.4283 94.418 47.6123 95.924 47.1963 97.593L51.9383 100.109L47.1953 102.622C47.6103 104.291 48.4253 105.798 49.5373 107.04L58.4473 102.321C59.2653 101.888 59.7763 101.038 59.7773 100.113C59.7753 99.186 59.2643 98.336 58.4473 97.902Z" fill="#DEE0E0"/>
<path d="M23.4327 82.156C22.7857 83.376 23.2497 84.889 24.4697 85.536L30.5407 88.757C31.7877 87.631 32.6427 86.086 32.8847 84.34L26.8127 81.118C25.5927 80.472 24.0787 80.935 23.4327 82.156Z" fill="#DEE0E0"/>
<path d="M30.9517 83.3272C30.9517 86.2562 28.5767 88.6312 25.6477 88.6312C22.7187 88.6312 20.3438 86.2572 20.3438 83.3272C20.3438 80.3982 22.7187 78.0232 25.6477 78.0232C28.5767 78.0242 30.9517 80.3982 30.9517 83.3272Z" fill="#FCFFFF"/>
<path d="M32.1158 116.245C32.1158 119.174 29.7408 121.549 26.8118 121.549C23.8828 121.549 21.5078 119.174 21.5078 116.245C21.5078 113.316 23.8828 110.941 26.8118 110.941C29.7408 110.941 32.1158 113.315 32.1158 116.245Z" fill="#FCFFFF"/>
<path d="M64.4781 100.11C64.4781 104.087 61.2541 107.31 57.2781 107.31C53.3011 107.31 50.0781 104.086 50.0781 100.11C50.0781 96.1332 53.3021 92.9102 57.2781 92.9102C61.2551 92.9102 64.4781 96.1342 64.4781 100.11Z" fill="#FCFFFF"/>
<path d="M31.4571 156.652L14.3521 152.536L10.6641 137.48L21.3121 126.526L23.2801 132.819L17.7881 139.417L19.6891 147.177L32.9681 150.372L31.4571 156.652Z" fill="#013819"/>
<path d="M46.8695 149.773C49.6925 155.206 47.5775 161.898 42.1445 164.721C36.7125 167.544 30.0195 165.429 27.1965 159.996C24.3735 154.563 26.4885 147.871 31.9215 145.048C37.3535 142.226 44.0455 144.341 46.8695 149.773Z" fill="#013819"/>
<path d="M31.9215 145.049C26.4885 147.872 24.3735 154.565 27.1965 159.997C27.2335 160.069 27.2795 160.133 27.3175 160.204C30.7125 160.171 34.5545 159.213 38.2765 157.279C41.9985 155.345 44.9905 152.751 46.9685 149.992C46.9335 149.92 46.9065 149.846 46.8685 149.774C44.0465 144.341 37.3545 142.226 31.9215 145.049Z" fill="#013819"/>
<path d="M26.75 150.778C29.247 151.37 31.957 151.112 34.413 149.836C36.869 148.56 38.638 146.49 39.588 144.107C37.091 143.515 34.381 143.773 31.925 145.049C29.47 146.325 27.7 148.394 26.75 150.778Z" fill="#013819"/>
<path d="M52.4959 160.847L33.0239 170.966C31.2539 171.886 29.0529 171.19 28.1329 169.42C27.2129 167.65 27.9089 165.449 29.6789 164.529L49.1509 154.41C50.9209 153.49 53.1219 154.186 54.0419 155.956C54.9619 157.726 54.2669 159.927 52.4959 160.847Z" fill="#013819"/>
<path d="M197.796 156.981C201.435 157.695 204.996 155.301 205.709 151.663L218.875 84.5241C219.589 80.8851 217.195 77.3241 213.557 76.6111C209.918 75.8971 206.358 78.2911 205.644 81.9291L192.478 149.068C191.764 152.706 194.158 156.267 197.796 156.981Z" fill="#013819"/>
<path d="M196.866 55.3089C193.616 57.0949 192.418 61.2139 194.204 64.4639L206.011 83.5739C207.797 86.8239 211.916 88.0219 215.166 86.2359C218.416 84.4499 219.614 80.3309 217.828 77.0809L206.021 57.9709C204.235 54.7209 200.115 53.5239 196.866 55.3089Z" fill="#013819"/>
<path d="M200.666 79.48C199.38 86.037 203.654 92.396 210.211 93.682C216.769 94.968 223.127 90.694 224.413 84.137C225.699 77.579 221.425 71.221 214.868 69.935C208.311 68.649 201.952 72.923 200.666 79.48Z" fill="#013819"/>
<path d="M204.866 80.3029C204.035 84.5419 206.797 88.6519 211.036 89.4829C215.275 90.3139 219.385 87.5519 220.216 83.3129C221.047 79.0739 218.285 74.9639 214.046 74.1329C209.807 73.3019 205.697 76.0649 204.866 80.3029Z" fill="#082229"/>
<path d="M185.039 60.1511L189.557 66.1861C193.092 70.9081 199.847 71.8791 204.569 68.3451C209.291 64.8101 210.262 58.0541 206.727 53.3321L202.209 47.2971L185.039 60.1511Z" fill="#013819"/>
<path d="M191.136 48.2649L178.695 57.3169L166.581 51.2329L165.328 37.9319L170.633 40.1909L171.911 47.5889L178.154 50.7249L187.813 43.6979L191.136 48.2649Z" fill="#013819"/>
<path d="M114.713 34.124L91.2149 67.03C90.0119 68.715 91.7679 70.922 93.6799 70.129L132.686 53.949L114.713 34.124Z" fill="#013819"/>
<path d="M102.109 51.772C102.735 57.307 107.461 61.647 113.157 61.647H114.126L132.685 53.949L114.711 34.125L102.109 51.772Z" fill="#013819"/>
<path d="M168.84 56.662H117.662C112.46 56.662 108.203 52.405 108.203 47.203V9.459C108.203 4.257 112.46 0 117.662 0H168.84C174.042 0 178.299 4.257 178.299 9.459V47.203C178.299 52.406 174.042 56.662 168.84 56.662Z" fill="#013819"/>
<path d="M149.039 28.3311C149.039 31.5301 146.445 34.1241 143.246 34.1241C140.047 34.1241 137.453 31.5301 137.453 28.3311C137.453 25.1321 140.046 22.5381 143.246 22.5381C146.446 22.5381 149.039 25.1321 149.039 28.3311Z" fill="#FFFDFF"/>
<path d="M130.273 28.3311C130.273 31.5301 127.679 34.1241 124.48 34.1241C121.281 34.1241 118.688 31.5301 118.688 28.3311C118.688 25.1321 121.281 22.5381 124.48 22.5381C127.679 22.5381 130.273 25.1321 130.273 28.3311Z" fill="#FFFDFF"/>
<path d="M167.813 28.3311C167.813 31.5301 165.219 34.1241 162.02 34.1241C158.821 34.1241 156.227 31.5301 156.227 28.3311C156.227 25.1321 158.821 22.5381 162.02 22.5381C165.219 22.5381 167.813 25.1321 167.813 28.3311Z" fill="#FFFDFF"/>
<path d="M192.884 44.3211L196.134 29.2831L185.671 20.6631L173 24.8951L177.211 28.8331L184.494 27.0111L189.886 31.4541L187.363 43.1281L192.884 44.3211Z" fill="#013819"/>
<path d="M181.614 53.856C184.823 58.142 190.898 59.016 195.184 55.807C199.47 52.598 200.344 46.523 197.135 42.237C193.926 37.951 187.851 37.077 183.565 40.286C179.279 43.494 178.405 49.57 181.614 53.856Z" fill="#013819"/>
<path d="M183.565 40.285C187.851 37.076 193.927 37.95 197.135 42.236C197.177 42.293 197.211 42.353 197.252 42.41C195.938 45.073 193.725 47.736 190.788 49.934C187.851 52.133 184.672 53.505 181.747 54.016C181.704 53.961 181.655 53.911 181.613 53.855C178.405 49.57 179.279 43.494 183.565 40.285Z" fill="#013819"/>
<path d="M190.043 38.3829C189.562 40.5749 188.329 42.6119 186.392 44.0629C184.455 45.5129 182.152 46.1219 179.914 45.9659C180.395 43.7739 181.628 41.7369 183.565 40.2859C185.502 38.8349 187.804 38.2269 190.043 38.3829Z" fill="#013819"/>
<path d="M188.203 62.492L203.566 50.991C204.963 49.946 205.25 47.947 204.204 46.551C203.158 45.154 201.16 44.867 199.764 45.913L184.401 57.413C183.004 58.459 182.717 60.457 183.762 61.854C184.808 63.25 186.807 63.537 188.203 62.492Z" fill="#013819"/>
<path d="M310.848 362.501H146.939C141.4 362.501 136.867 357.969 136.867 352.429C136.867 346.89 141.399 342.357 146.939 342.357H310.848C316.387 342.357 320.92 346.889 320.92 352.429C320.919 357.969 316.387 362.501 310.848 362.501Z" fill="#013819"/>
<path d="M364.949 292.016H92.833C88.456 292.016 84.875 288.435 84.875 284.058V113.46C84.875 109.083 88.456 105.502 92.833 105.502H364.949C369.326 105.502 372.907 109.083 372.907 113.46V284.058C372.907 288.434 369.326 292.016 364.949 292.016Z" fill="#FCFFFF"/>
<path d="M358.959 269.946H98.8187C94.2737 269.946 90.5547 266.227 90.5547 261.682V120.877C90.5547 116.332 94.2737 112.613 98.8187 112.613H358.959C363.504 112.613 367.223 116.332 367.223 120.877V261.683C367.222 266.228 363.504 269.946 358.959 269.946Z" fill="#013819"/>
<path d="M341.572 112.613H116.203V269.946H341.572V112.613Z" fill="#FFFDFF"/>
<path d="M341.572 266.34H116.203V269.947H341.572V266.34Z" fill="#D6D9D9"/>
<path d="M161.872 254.815C168.662 248.024 168.662 237.014 161.872 230.224C155.081 223.433 144.071 223.433 137.28 230.224C130.489 237.014 130.489 248.024 137.28 254.815C144.071 261.606 155.081 261.606 161.872 254.815Z" fill="#FF6B5D"/>
<path d="M325.299 245.64C327.033 236.194 320.781 227.131 311.334 225.398C301.888 223.664 292.825 229.917 291.092 239.363C289.358 248.809 295.611 257.872 305.057 259.605C314.503 261.339 323.566 255.086 325.299 245.64Z" fill="#FFB715"/>
<path d="M277.66 259.909H180.127C178.422 259.909 177.039 258.527 177.039 256.821V228.219C177.039 226.514 178.421 225.131 180.127 225.131H277.66C279.365 225.131 280.748 226.514 280.748 228.219V256.821C280.748 258.527 279.365 259.909 277.66 259.909Z" fill="#D6D9D9"/>
<path d="M270.944 234.636H186.842C185.696 234.636 184.758 233.698 184.758 232.552C184.758 231.406 185.696 230.468 186.842 230.468H270.944C272.09 230.468 273.028 231.406 273.028 232.552C273.028 233.698 272.09 234.636 270.944 234.636Z" fill="#FFFDFF"/>
<path d="M270.944 244.604H186.842C185.696 244.604 184.758 243.666 184.758 242.52C184.758 241.374 185.696 240.436 186.842 240.436H270.944C272.09 240.436 273.028 241.374 273.028 242.52C273.028 243.667 272.09 244.604 270.944 244.604Z" fill="#FFFDFF"/>
<path d="M270.944 254.573H186.842C185.696 254.573 184.758 253.635 184.758 252.489C184.758 251.343 185.696 250.405 186.842 250.405H270.944C272.09 250.405 273.028 251.343 273.028 252.489C273.028 253.635 272.09 254.573 270.944 254.573Z" fill="#FFFDFF"/>
<path d="M325.59 158.981H220.461V163.943H325.59V158.981Z" fill="#D6D9D9"/>
<path d="M325.59 170.92H220.461V175.882H325.59V170.92Z" fill="#EAEDED"/>
<path d="M325.59 182.859H220.461V187.821H325.59V182.859Z" fill="#D6D9D9"/>
<path d="M325.59 194.797H220.461V199.759H325.59V194.797Z" fill="#EAEDED"/>
<path d="M325.588 128.549H132.188V153.001H325.588V128.549Z" fill="#FF6B5D"/>
<path d="M319.475 219.706H138.3C134.924 219.706 132.188 216.969 132.188 213.593C132.188 210.217 134.924 207.48 138.3 207.48H319.476C322.852 207.48 325.588 210.217 325.588 213.593C325.587 216.969 322.852 219.706 319.475 219.706Z" fill="#EAEDED"/>
<path d="M319.423 215.149H138.361C137.502 215.149 136.805 214.452 136.805 213.593C136.805 212.734 137.502 212.037 138.361 212.037H319.423C320.282 212.037 320.979 212.734 320.979 213.593C320.979 214.452 320.282 215.149 319.423 215.149Z" fill="#FFFDFF"/>
<path d="M212.536 158.981H132.188V199.759H212.536V158.981Z" fill="#013819"/>
<path d="M210.064 161.462H134.672V197.278H210.064V161.462Z" fill="#013819"/>
<path d="M210.061 197.278V189.261L191.91 169.827C190.603 168.428 188.385 168.428 187.078 169.827L161.438 197.278H210.061Z" fill="#013819"/>
<path d="M154.799 179.285C153.493 177.886 151.275 177.886 149.968 179.285L134.672 195.661V197.278H171.606L154.799 179.285Z" fill="#013819"/>
<path d="M135.552 145.658V136.174H136.379L140.714 143.572H140.281L144.575 136.174H145.402V145.658H144.44V137.678H144.67L140.714 144.452H140.24L136.257 137.678H136.514V145.658H135.552ZM152.746 145.658V144.086L152.705 143.829V141.201C152.705 140.595 152.534 140.13 152.191 139.805C151.856 139.48 151.355 139.317 150.687 139.317C150.226 139.317 149.788 139.394 149.373 139.548C148.957 139.701 148.605 139.904 148.316 140.157L147.882 139.439C148.244 139.132 148.677 138.897 149.183 138.735C149.689 138.563 150.222 138.477 150.782 138.477C151.703 138.477 152.412 138.708 152.909 139.168C153.414 139.62 153.667 140.311 153.667 141.241V145.658H152.746ZM150.294 145.726C149.761 145.726 149.296 145.64 148.898 145.468C148.51 145.288 148.212 145.044 148.004 144.737C147.796 144.421 147.693 144.059 147.693 143.653C147.693 143.283 147.778 142.948 147.95 142.65C148.131 142.343 148.42 142.099 148.817 141.919C149.223 141.729 149.765 141.634 150.443 141.634H152.895V142.352H150.47C149.783 142.352 149.305 142.474 149.034 142.718C148.772 142.962 148.641 143.264 148.641 143.626C148.641 144.032 148.799 144.357 149.115 144.601C149.431 144.845 149.874 144.967 150.443 144.967C150.985 144.967 151.45 144.845 151.838 144.601C152.236 144.348 152.525 143.987 152.705 143.517L152.922 144.181C152.742 144.651 152.425 145.026 151.974 145.306C151.531 145.586 150.971 145.726 150.294 145.726ZM156.28 145.658V138.545H157.201V140.483L157.106 140.144C157.305 139.602 157.639 139.191 158.109 138.911C158.579 138.622 159.161 138.477 159.857 138.477V139.412C159.821 139.412 159.784 139.412 159.748 139.412C159.712 139.403 159.676 139.399 159.64 139.399C158.89 139.399 158.303 139.629 157.879 140.09C157.454 140.541 157.242 141.187 157.242 142.027V145.658H156.28ZM162.371 143.815L162.398 142.583L166.828 138.545H168.007L164.877 141.539L164.335 142L162.371 143.815ZM161.612 145.658V135.605H162.574V145.658H161.612ZM167.126 145.658L164.159 141.959L164.782 141.214L168.305 145.658H167.126ZM172.492 145.726C171.752 145.726 171.101 145.572 170.541 145.265C169.981 144.949 169.543 144.52 169.227 143.978C168.911 143.427 168.753 142.799 168.753 142.095C168.753 141.39 168.902 140.767 169.2 140.225C169.507 139.683 169.923 139.259 170.446 138.952C170.979 138.635 171.575 138.477 172.235 138.477C172.903 138.477 173.495 138.631 174.01 138.938C174.533 139.236 174.944 139.661 175.243 140.212C175.541 140.754 175.69 141.381 175.69 142.095C175.69 142.14 175.685 142.19 175.676 142.244C175.676 142.289 175.676 142.339 175.676 142.393H169.485V141.675H175.161L174.782 141.959C174.782 141.444 174.669 140.988 174.443 140.591C174.226 140.184 173.928 139.868 173.549 139.643C173.17 139.417 172.732 139.304 172.235 139.304C171.747 139.304 171.309 139.417 170.921 139.643C170.532 139.868 170.23 140.184 170.013 140.591C169.796 140.997 169.688 141.463 169.688 141.986V142.135C169.688 142.677 169.805 143.156 170.04 143.572C170.284 143.978 170.618 144.299 171.043 144.533C171.476 144.759 171.968 144.872 172.519 144.872C172.953 144.872 173.355 144.795 173.725 144.642C174.104 144.488 174.43 144.253 174.701 143.937L175.243 144.561C174.926 144.94 174.529 145.229 174.05 145.428C173.581 145.626 173.061 145.726 172.492 145.726ZM179.897 145.726C179.228 145.726 178.713 145.545 178.352 145.184C177.991 144.822 177.81 144.312 177.81 143.653V136.974H178.772V143.599C178.772 144.014 178.876 144.335 179.084 144.561C179.3 144.786 179.607 144.899 180.005 144.899C180.429 144.899 180.782 144.777 181.062 144.533L181.4 145.224C181.211 145.396 180.98 145.522 180.709 145.604C180.447 145.685 180.177 145.726 179.897 145.726ZM176.537 139.344V138.545H180.94V139.344H176.537ZM183.151 145.658V138.545H184.113V145.658H183.151ZM183.639 136.974C183.44 136.974 183.273 136.906 183.138 136.77C183.002 136.635 182.935 136.472 182.935 136.283C182.935 136.093 183.002 135.935 183.138 135.808C183.273 135.673 183.44 135.605 183.639 135.605C183.838 135.605 184.005 135.668 184.14 135.795C184.276 135.921 184.344 136.079 184.344 136.269C184.344 136.468 184.276 136.635 184.14 136.77C184.014 136.906 183.847 136.974 183.639 136.974ZM190.421 138.477C190.999 138.477 191.505 138.59 191.938 138.816C192.381 139.033 192.724 139.367 192.968 139.819C193.221 140.27 193.347 140.839 193.347 141.526V145.658H192.385V141.621C192.385 140.871 192.196 140.306 191.816 139.927C191.446 139.539 190.922 139.344 190.245 139.344C189.739 139.344 189.296 139.448 188.917 139.656C188.547 139.855 188.258 140.148 188.05 140.537C187.851 140.916 187.752 141.377 187.752 141.919V145.658H186.79V138.545H187.711V140.496L187.562 140.13C187.788 139.615 188.149 139.214 188.646 138.925C189.143 138.626 189.734 138.477 190.421 138.477ZM198.98 148.354C198.33 148.354 197.707 148.259 197.111 148.07C196.515 147.88 196.031 147.609 195.661 147.257L196.149 146.525C196.483 146.823 196.894 147.058 197.382 147.23C197.878 147.41 198.402 147.501 198.953 147.501C199.856 147.501 200.52 147.288 200.945 146.864C201.369 146.448 201.582 145.798 201.582 144.913V143.138L201.717 141.919L201.622 140.699V138.545H202.543V144.791C202.543 146.019 202.241 146.918 201.636 147.487C201.04 148.065 200.154 148.354 198.98 148.354ZM198.804 145.387C198.127 145.387 197.517 145.242 196.975 144.953C196.433 144.655 196.004 144.244 195.688 143.721C195.381 143.197 195.227 142.596 195.227 141.919C195.227 141.241 195.381 140.645 195.688 140.13C196.004 139.606 196.433 139.2 196.975 138.911C197.517 138.622 198.127 138.477 198.804 138.477C199.436 138.477 200.005 138.608 200.511 138.87C201.017 139.132 201.419 139.521 201.717 140.035C202.015 140.55 202.164 141.178 202.164 141.919C202.164 142.659 202.015 143.287 201.717 143.802C201.419 144.317 201.017 144.71 200.511 144.981C200.005 145.252 199.436 145.387 198.804 145.387ZM198.899 144.533C199.423 144.533 199.888 144.425 200.294 144.208C200.701 143.982 201.022 143.675 201.256 143.287C201.491 142.89 201.609 142.433 201.609 141.919C201.609 141.404 201.491 140.952 201.256 140.564C201.022 140.175 200.701 139.873 200.294 139.656C199.888 139.43 199.423 139.317 198.899 139.317C198.384 139.317 197.919 139.43 197.504 139.656C197.097 139.873 196.776 140.175 196.542 140.564C196.316 140.952 196.203 141.404 196.203 141.919C196.203 142.433 196.316 142.89 196.542 143.287C196.776 143.675 197.097 143.982 197.504 144.208C197.919 144.425 198.384 144.533 198.899 144.533ZM207.452 145.658L211.787 136.174H212.776L217.112 145.658H216.055L212.072 136.757H212.478L208.495 145.658H207.452ZM209.159 143.124L209.457 142.312H214.971L215.269 143.124H209.159ZM221.285 145.726C220.68 145.726 220.151 145.613 219.7 145.387C219.248 145.161 218.896 144.822 218.643 144.371C218.399 143.919 218.277 143.355 218.277 142.677V138.545H219.239V142.569C219.239 143.328 219.424 143.901 219.795 144.29C220.174 144.669 220.702 144.859 221.38 144.859C221.877 144.859 222.306 144.759 222.667 144.561C223.037 144.353 223.317 144.055 223.507 143.666C223.706 143.278 223.805 142.813 223.805 142.271V138.545H224.767V145.658H223.846V143.707L223.995 144.059C223.769 144.583 223.417 144.994 222.938 145.292C222.468 145.581 221.917 145.726 221.285 145.726ZM229.697 145.726C229.028 145.726 228.514 145.545 228.152 145.184C227.791 144.822 227.61 144.312 227.61 143.653V136.974H228.572V143.599C228.572 144.014 228.676 144.335 228.884 144.561C229.101 144.786 229.408 144.899 229.805 144.899C230.23 144.899 230.582 144.777 230.862 144.533L231.201 145.224C231.011 145.396 230.781 145.522 230.51 145.604C230.248 145.685 229.977 145.726 229.697 145.726ZM226.337 139.344V138.545H230.74V139.344H226.337ZM235.6 145.726C234.913 145.726 234.294 145.572 233.744 145.265C233.202 144.949 232.773 144.52 232.456 143.978C232.14 143.427 231.982 142.799 231.982 142.095C231.982 141.381 232.14 140.754 232.456 140.212C232.773 139.67 233.202 139.245 233.744 138.938C234.285 138.631 234.904 138.477 235.6 138.477C236.304 138.477 236.927 138.631 237.469 138.938C238.02 139.245 238.449 139.67 238.756 140.212C239.072 140.754 239.231 141.381 239.231 142.095C239.231 142.799 239.072 143.427 238.756 143.978C238.449 144.52 238.02 144.949 237.469 145.265C236.918 145.572 236.295 145.726 235.6 145.726ZM235.6 144.872C236.114 144.872 236.571 144.759 236.968 144.533C237.365 144.299 237.677 143.973 237.903 143.558C238.138 143.133 238.255 142.646 238.255 142.095C238.255 141.535 238.138 141.047 237.903 140.632C237.677 140.216 237.365 139.895 236.968 139.67C236.571 139.435 236.119 139.317 235.613 139.317C235.107 139.317 234.656 139.435 234.258 139.67C233.861 139.895 233.545 140.216 233.31 140.632C233.075 141.047 232.958 141.535 232.958 142.095C232.958 142.646 233.075 143.133 233.31 143.558C233.545 143.973 233.861 144.299 234.258 144.533C234.656 144.759 235.103 144.872 235.6 144.872ZM250.082 138.477C250.66 138.477 251.161 138.59 251.586 138.816C252.019 139.033 252.354 139.367 252.588 139.819C252.832 140.27 252.954 140.839 252.954 141.526V145.658H251.992V141.621C251.992 140.871 251.812 140.306 251.45 139.927C251.098 139.539 250.597 139.344 249.947 139.344C249.459 139.344 249.034 139.448 248.673 139.656C248.321 139.855 248.045 140.148 247.847 140.537C247.657 140.916 247.562 141.377 247.562 141.919V145.658H246.6V141.621C246.6 140.871 246.419 140.306 246.058 139.927C245.697 139.539 245.191 139.344 244.541 139.344C244.062 139.344 243.642 139.448 243.281 139.656C242.92 139.855 242.64 140.148 242.441 140.537C242.251 140.916 242.156 141.377 242.156 141.919V145.658H241.194V138.545H242.116V140.469L241.967 140.13C242.183 139.615 242.531 139.214 243.01 138.925C243.498 138.626 244.071 138.477 244.73 138.477C245.426 138.477 246.018 138.654 246.505 139.006C246.993 139.349 247.309 139.868 247.454 140.564L247.074 140.415C247.282 139.837 247.648 139.372 248.172 139.019C248.705 138.658 249.341 138.477 250.082 138.477ZM260.02 145.658V144.086L259.98 143.829V141.201C259.98 140.595 259.808 140.13 259.465 139.805C259.131 139.48 258.629 139.317 257.961 139.317C257.5 139.317 257.062 139.394 256.647 139.548C256.231 139.701 255.879 139.904 255.59 140.157L255.156 139.439C255.518 139.132 255.951 138.897 256.457 138.735C256.963 138.563 257.496 138.477 258.056 138.477C258.977 138.477 259.686 138.708 260.183 139.168C260.689 139.62 260.942 140.311 260.942 141.241V145.658H260.02ZM257.568 145.726C257.035 145.726 256.57 145.64 256.173 145.468C255.784 145.288 255.486 145.044 255.278 144.737C255.071 144.421 254.967 144.059 254.967 143.653C254.967 143.283 255.053 142.948 255.224 142.65C255.405 142.343 255.694 142.099 256.091 141.919C256.498 141.729 257.04 141.634 257.717 141.634H260.169V142.352H257.744C257.058 142.352 256.579 142.474 256.308 142.718C256.046 142.962 255.915 143.264 255.915 143.626C255.915 144.032 256.073 144.357 256.389 144.601C256.705 144.845 257.148 144.967 257.717 144.967C258.259 144.967 258.724 144.845 259.113 144.601C259.51 144.348 259.799 143.987 259.98 143.517L260.196 144.181C260.016 144.651 259.7 145.026 259.248 145.306C258.805 145.586 258.245 145.726 257.568 145.726ZM265.803 145.726C265.135 145.726 264.62 145.545 264.259 145.184C263.897 144.822 263.717 144.312 263.717 143.653V136.974H264.679V143.599C264.679 144.014 264.783 144.335 264.99 144.561C265.207 144.786 265.514 144.899 265.912 144.899C266.336 144.899 266.688 144.777 266.968 144.533L267.307 145.224C267.117 145.396 266.887 145.522 266.616 145.604C266.354 145.685 266.083 145.726 265.803 145.726ZM262.443 139.344V138.545H266.846V139.344H262.443ZM269.058 145.658V138.545H270.02V145.658H269.058ZM269.546 136.974C269.347 136.974 269.18 136.906 269.045 136.77C268.909 136.635 268.841 136.472 268.841 136.283C268.841 136.093 268.909 135.935 269.045 135.808C269.18 135.673 269.347 135.605 269.546 135.605C269.745 135.605 269.912 135.668 270.047 135.795C270.183 135.921 270.25 136.079 270.25 136.269C270.25 136.468 270.183 136.635 270.047 136.77C269.921 136.906 269.754 136.974 269.546 136.974ZM275.596 145.726C274.909 145.726 274.291 145.572 273.74 145.265C273.198 144.949 272.769 144.52 272.453 143.978C272.137 143.427 271.979 142.799 271.979 142.095C271.979 141.381 272.137 140.754 272.453 140.212C272.769 139.67 273.198 139.245 273.74 138.938C274.282 138.631 274.9 138.477 275.596 138.477C276.3 138.477 276.924 138.631 277.466 138.938C278.017 139.245 278.446 139.67 278.753 140.212C279.069 140.754 279.227 141.381 279.227 142.095C279.227 142.799 279.069 143.427 278.753 143.978C278.446 144.52 278.017 144.949 277.466 145.265C276.915 145.572 276.291 145.726 275.596 145.726ZM275.596 144.872C276.111 144.872 276.567 144.759 276.964 144.533C277.362 144.299 277.673 143.973 277.899 143.558C278.134 143.133 278.251 142.646 278.251 142.095C278.251 141.535 278.134 141.047 277.899 140.632C277.673 140.216 277.362 139.895 276.964 139.67C276.567 139.435 276.115 139.317 275.609 139.317C275.104 139.317 274.652 139.435 274.255 139.67C273.857 139.895 273.541 140.216 273.306 140.632C273.071 141.047 272.954 141.535 272.954 142.095C272.954 142.646 273.071 143.133 273.306 143.558C273.541 143.973 273.857 144.299 274.255 144.533C274.652 144.759 275.099 144.872 275.596 144.872ZM284.822 138.477C285.4 138.477 285.905 138.59 286.339 138.816C286.782 139.033 287.125 139.367 287.369 139.819C287.622 140.27 287.748 140.839 287.748 141.526V145.658H286.786V141.621C286.786 140.871 286.596 140.306 286.217 139.927C285.847 139.539 285.323 139.344 284.645 139.344C284.14 139.344 283.697 139.448 283.318 139.656C282.947 139.855 282.658 140.148 282.451 140.537C282.252 140.916 282.153 141.377 282.153 141.919V145.658H281.191V138.545H282.112V140.496L281.963 140.13C282.189 139.615 282.55 139.214 283.047 138.925C283.544 138.626 284.135 138.477 284.822 138.477Z" fill="#FCFFFF"/>
<path d="M341.572 112.613H116.203V121.876H341.572V112.613Z" fill="#364D66"/>
<path d="M336.492 117.245C336.492 118.367 335.583 119.276 334.461 119.276C333.339 119.276 332.43 118.367 332.43 117.245C332.43 116.123 333.339 115.214 334.461 115.214C335.583 115.213 336.492 116.123 336.492 117.245Z" fill="#FF6B5D"/>
<path d="M318.75 117.245C318.75 118.367 317.841 119.276 316.719 119.276C315.597 119.276 314.688 118.367 314.688 117.245C314.688 116.123 315.597 115.214 316.719 115.214C317.841 115.213 318.75 116.123 318.75 117.245Z" fill="#FFB715"/>
<path d="M327.624 117.245C327.624 118.367 326.716 119.276 325.594 119.276C324.472 119.276 323.562 118.367 323.562 117.245C323.562 116.123 324.472 115.214 325.594 115.214C326.716 115.214 327.624 116.123 327.624 117.245Z" fill="#74DB69"/>
<path d="M229.365 292.079H266.727C266.727 292.079 271.695 325.809 292.433 346.586H229.126H165.82C186.558 325.809 191.526 292.079 191.526 292.079H228.888" fill="#A6A8A8"/>
<path d="M282.529 334.097C265.476 335.534 247.581 336.303 229.127 336.303C210.673 336.303 192.778 335.535 175.725 334.097C172.911 338.504 169.634 342.764 165.82 346.585H229.126H292.433C288.62 342.765 285.344 338.504 282.529 334.097Z" fill="#8A8C8C"/>
<path d="M293.429 356.953H164.826C161.205 356.953 158.242 353.99 158.242 350.369V349.562C158.242 345.941 161.205 342.978 164.826 342.978H293.429C297.05 342.978 300.013 345.941 300.013 349.562V350.369C300.013 353.99 297.05 356.953 293.429 356.953Z" fill="#D6D9D9"/>
<path d="M293.81 351.468H164.446C161.897 351.468 159.695 349.713 158.744 347.222C158.422 348.065 158.242 348.992 158.242 349.964C158.242 353.807 161.034 356.952 164.446 356.952H293.81C297.222 356.952 300.014 353.807 300.014 349.964C300.014 348.992 299.834 348.065 299.512 347.222C298.561 349.713 296.359 351.468 293.81 351.468Z" fill="#B8BABA"/>
<path d="M229.126 304.015C243.491 304.015 257.339 305.101 270.354 307.111C267.652 298.335 266.726 292.079 266.726 292.079H229.364H228.888H191.526C191.526 292.079 190.601 298.335 187.898 307.111C200.914 305.101 214.762 304.015 229.126 304.015Z" fill="#8A8C8C"/>
<path d="M84.875 277.145V284.058C84.875 288.435 88.456 292.016 92.833 292.016H364.949C369.326 292.016 372.907 288.435 372.907 284.058V277.145H84.875Z" fill="#D6D9D9"/>
<path d="M228.889 289.133C231.403 289.133 233.442 287.095 233.442 284.58C233.442 282.065 231.403 280.027 228.889 280.027C226.374 280.027 224.336 282.065 224.336 284.58C224.336 287.095 226.374 289.133 228.889 289.133Z" fill="#FCFFFF"/>
<path d="M231.64 284.58C231.64 286.096 230.411 287.326 228.894 287.326C227.377 287.326 226.148 286.097 226.148 284.58C226.148 283.064 227.377 281.834 228.894 281.834C230.41 281.834 231.64 283.064 231.64 284.58Z" fill="#8A8C8C"/>
<path opacity="0.05" d="M367.223 120.877V261.683C367.223 266.228 363.504 269.947 358.959 269.947H98.8203L367.223 120.877Z" fill="black"/>
<path d="M174.044 172.297C174.044 176.204 170.877 179.37 166.971 179.37C163.064 179.37 159.898 176.203 159.898 172.297C159.898 168.391 163.065 165.224 166.971 165.224C170.877 165.223 174.044 168.39 174.044 172.297Z" fill="#FFB715"/>
</svg>
