<svg width="42" height="34" viewBox="0 0 42 34" fill="none" xmlns="http://www.w3.org/2000/svg">
<path d="M38.1583 28.5583C42.0896 24.2917 41.6937 18.8125 41.6812 18.75V2.08333C41.6812 1.5308 41.4618 1.0009 41.0711 0.610195C40.6804 0.219494 40.1504 0 39.5979 0H27.0979C24.8 0 22.9312 1.86875 22.9312 4.16667V18.75C22.9312 19.3025 23.1507 19.8324 23.5414 20.2231C23.9321 20.6138 24.462 20.8333 25.0146 20.8333H31.4271C31.3821 21.8631 31.0745 22.8643 30.5333 23.7417C29.475 25.4104 27.4813 26.55 24.6042 27.125L22.9312 27.4583V33.3333H25.0146C30.8125 33.3333 35.2354 31.7271 38.1583 28.5583ZM15.2271 28.5583C19.1604 24.2917 18.7625 18.8125 18.75 18.75V2.08333C18.75 1.5308 18.5305 1.0009 18.1398 0.610195C17.7491 0.219494 17.2192 0 16.6667 0H4.16667C1.86875 0 0 1.86875 0 4.16667V18.75C0 19.3025 0.219493 19.8324 0.610194 20.2231C1.00089 20.6138 1.5308 20.8333 2.08333 20.8333H8.49583C8.4509 21.8631 8.14322 22.8643 7.60208 23.7417C6.54375 25.4104 4.55 26.55 1.67292 27.125L0 27.4583V33.3333H2.08333C7.88125 33.3333 12.3042 31.7271 15.2271 28.5583Z" fill="#013819"/>
</svg>
