<svg width="435" height="461" viewBox="0 0 435 461" fill="none" xmlns="http://www.w3.org/2000/svg">
<path d="M185.456 131.103C182.233 128.857 178.932 126.73 175.753 124.418C175.173 123.995 174.655 122.907 174.715 122.182C175.101 117.502 175.744 112.845 176.1 108.163C176.204 106.801 176.494 106.085 177.738 105.566C182.12 103.736 186.455 101.782 190.806 99.8696C191.511 99.5595 192.206 99.2234 193.422 98.6601C191.294 91.6617 189.189 84.7414 187.032 77.6474C181.423 78.8545 176.308 79.8652 171.24 81.0946C169.453 81.528 168.477 81.3176 167.313 79.5879C164.937 76.0532 162.09 72.8677 159.533 69.4595C159.141 68.9368 158.968 67.8778 159.19 67.2637C160.884 62.5753 162.574 57.8756 164.537 53.307C165.479 51.1145 164.995 49.9419 163.118 48.9385C162.396 48.5527 161.808 47.8943 161.159 47.3601C157.92 45.5654 154.682 43.7707 151.443 41.9759C151.037 41.8942 150.605 41.8789 150.228 41.7208C146.28 40.0615 147.039 40.0906 144.825 43.5483C142.127 47.7614 139.498 52.022 137.189 55.7027C131.154 55.1547 125.513 54.6423 119.687 54.1134C117.447 48.526 115.107 42.6875 112.751 36.8108C105.653 37.8618 99.1385 40.2504 92.753 43.4784C93.8975 49.2548 94.9996 54.8893 96.1413 60.5152C96.3461 61.5249 96.2911 62.1375 95.3496 62.8851C91.6643 65.8126 88.0448 68.8438 84.5609 72.0284C83.5565 72.9463 82.9071 72.9554 81.819 72.4851C77.3271 70.5437 72.7921 68.7118 68.2924 66.7898C67.1745 66.3121 66.453 66.353 65.6348 67.5007C61.9647 72.6489 59.4765 78.3968 57.4439 84.4049C57.0416 85.594 57.59 86.1039 58.4492 86.6804C62.424 89.3466 66.3374 92.114 70.3294 94.7512C71.4798 95.5111 71.8336 96.1695 71.6147 97.7214C70.8581 103.083 70.3999 108.49 69.7819 114.314C64.9328 116.446 59.4304 118.865 53.9297 121.284C54.9226 128.86 56.9086 135.865 60.1591 142.533C66.1707 141.195 72.0191 139.893 77.316 138.714C80.6497 142.685 83.6575 146.46 86.8868 150.015C88.1069 151.358 88.3285 152.376 87.6306 154.051C85.7719 158.513 84.0789 163.051 82.3632 167.577C82.0243 168.471 81.3521 169.515 82.6863 170.24C88.1135 173.193 93.5377 176.151 98.9657 179.102C100.119 179.729 100.842 179.319 101.531 178.179C104.093 173.941 106.833 169.819 109.325 165.538C110.286 163.886 111.331 163.815 112.963 164.034C116.992 164.572 121.053 165.029 125.107 165.097C126.855 165.126 127.498 165.599 128.098 167.222C130.027 172.438 132.151 177.575 134.157 182.634C138.487 182.602 150.259 178.648 154.492 175.851C153.344 170.293 152.237 164.659 150.981 159.062C150.667 157.662 151.06 157.057 152.079 156.206C155.366 153.46 158.468 150.47 161.729 147.689C162.278 147.221 163.396 146.957 164.027 147.211C168.038 148.822 171.995 150.581 175.95 152.339C178.162 153.322 179.051 153.727 179.893 153.127L189.015 135.07C189.027 133.605 188.064 132.92 185.456 131.103ZM151.088 125.035C142.934 141.175 123.832 147.337 108.421 138.798C93.0106 130.258 87.1276 110.251 95.281 94.1104C103.434 77.9699 122.537 71.808 137.948 80.3476C153.358 88.8871 159.241 108.894 151.088 125.035Z" fill="#CAE1F9"/>
<path opacity="0.2" d="M314.785 108.037C313.601 107.212 312.39 106.432 311.223 105.583C311.01 105.428 310.82 105.028 310.842 104.762C310.984 103.044 311.219 101.335 311.35 99.6159C311.388 99.1157 311.495 98.8531 311.951 98.6623C313.56 97.9906 315.152 97.2734 316.748 96.5716C317.007 96.4576 317.262 96.3343 317.709 96.1275C316.928 93.5584 316.155 91.018 315.363 88.414C313.304 88.8571 311.426 89.2282 309.566 89.6794C308.91 89.8385 308.552 89.7613 308.125 89.1265C307.252 87.8288 306.208 86.6595 305.269 85.4084C305.125 85.2165 305.061 84.8279 305.143 84.6024C305.765 82.8813 306.385 81.1561 307.106 79.4791C307.451 78.6742 307.274 78.2437 306.585 77.8753C306.32 77.7338 306.104 77.492 305.866 77.2959C304.677 76.6371 303.488 75.9782 302.299 75.3196C302.15 75.2895 301.992 75.284 301.853 75.2259C300.404 74.6169 300.682 74.6273 299.869 75.8968C298.879 77.4433 297.914 79.0074 297.066 80.3585C294.851 80.1573 292.78 79.9692 290.642 79.7751C289.82 77.7242 288.961 75.5809 288.096 73.4236C285.49 73.8093 283.099 74.6861 280.755 75.8712C281.175 77.9915 281.58 80.06 281.999 82.1252C282.074 82.496 282.054 82.7206 281.708 82.9953C280.355 84.0699 279.027 85.1827 277.748 86.3517C277.379 86.6887 277.141 86.692 276.741 86.5195C275.092 85.8068 273.428 85.1344 271.776 84.4288C271.366 84.2534 271.101 84.2683 270.8 84.6896C269.453 86.5796 268.54 88.6895 267.794 90.8951C267.646 91.3316 267.847 91.5188 268.163 91.7303C269.622 92.709 271.058 93.7249 272.524 94.6929C272.946 94.9718 273.076 95.2136 272.996 95.7832C272.718 97.7513 272.55 99.7363 272.323 101.874C270.543 102.657 268.523 103.545 266.504 104.433C266.868 107.214 267.598 109.785 268.791 112.233C270.997 111.742 273.144 111.264 275.089 110.831C276.313 112.289 277.417 113.675 278.602 114.979C279.05 115.473 279.131 115.846 278.875 116.461C278.193 118.099 277.571 119.765 276.941 121.426C276.817 121.755 276.57 122.138 277.06 122.404C279.052 123.488 281.043 124.574 283.036 125.657C283.459 125.887 283.725 125.737 283.978 125.319C284.918 123.763 285.924 122.249 286.839 120.678C287.191 120.071 287.575 120.046 288.174 120.126C289.653 120.323 291.144 120.491 292.632 120.516C293.274 120.527 293.51 120.7 293.73 121.296C294.438 123.211 295.218 125.096 295.954 126.953C297.544 126.942 301.865 125.49 303.419 124.464C302.997 122.423 302.591 120.355 302.13 118.301C302.015 117.787 302.159 117.564 302.533 117.252C303.74 116.244 304.878 115.147 306.076 114.126C306.277 113.954 306.688 113.857 306.919 113.95C308.392 114.542 309.844 115.187 311.296 115.833C312.108 116.194 312.434 116.342 312.744 116.122L316.092 109.493C316.096 108.955 315.742 108.704 314.785 108.037ZM302.169 105.809C299.176 111.734 292.163 113.996 286.506 110.861C280.849 107.727 278.69 100.382 281.683 94.4574L281.683 94.4572C284.676 88.5324 291.688 86.2704 297.345 89.4051C303.002 92.5401 305.162 99.8843 302.169 105.809Z" fill="#9BC1F9"/>
<path d="M109.824 337.744C109.824 337.744 49.2678 306.472 38.8536 290.162C28.4396 273.851 43.7482 272.927 43.7482 272.927C43.7482 272.927 16.7247 245.4 20.5268 233.812C24.3288 222.224 38.3276 232.852 38.3276 232.852C38.3276 232.852 20.9516 192.34 29.1445 188.268C44.4049 180.682 65.8129 224.27 65.8129 224.27C65.8129 224.27 61.2122 205.335 71.7206 205.95C87.5684 206.878 86.9136 249.711 86.9136 249.711C86.9136 249.711 88.7034 233.288 98.2552 238.623C115.393 248.194 109.824 337.744 109.824 337.744Z" fill="#3C8F7C"/>
<path d="M101.703 231.997C94.2447 227.662 86.8158 240.333 86.8158 240.333C86.8158 240.333 87.5684 206.878 71.7206 205.95C61.2122 205.334 65.8129 224.27 65.8129 224.27C65.8129 224.27 44.4049 180.682 29.1445 188.267L109.893 337.048C110.464 326.658 116.479 240.585 101.703 231.997Z" fill="#50BFA5"/>
<path d="M108.263 338.132C108.263 338.132 58.736 344.574 45.9124 338.833C33.0888 333.091 42.2789 326 42.2789 326C42.2789 326 14.7439 320.331 12.6195 311.485C10.4951 302.639 23.1972 303.344 23.1972 303.344C23.1972 303.344 -3.20531 285.437 0.324896 279.41C6.90033 268.184 37.1639 286.26 37.1639 286.26C37.1639 286.26 26.948 276.408 33.7412 272.319C43.9861 266.154 60.1956 293.149 60.1956 293.149C60.1956 293.149 59.1886 286.495 67.2162 285.757C81.6193 284.434 108.263 338.132 108.263 338.132Z" fill="#3C8F7C"/>
<path d="M67.5446 280.923C59.5172 281.66 60.199 293.149 60.199 293.149C60.199 293.149 43.6965 261.15 33.4516 267.315C26.6583 271.404 34.6955 284.831 34.6955 284.831C34.6955 284.831 6.90377 268.184 0.328125 279.41L108.416 337.844C104.741 331.121 80.9983 279.686 67.5446 280.923Z" fill="#50BFA5"/>
<path d="M393.048 262.376L395.708 255.642C397.772 250.69 403.054 248.325 407.505 250.36C418.722 255.489 423.599 269.763 418.397 282.243L414.594 291.367C412.928 295.364 413.508 299.761 415.755 302.862C417.795 305.678 418.128 309.593 416.714 312.988L414.709 317.798C412.538 323.005 408.315 326.862 403.306 328.453C400.377 329.383 397.79 331.686 396.422 334.968L393.583 341.779C390.445 349.309 382.414 352.905 375.647 349.811L371.786 348.045C365.018 344.951 362.075 336.338 365.214 328.809C370.289 319.805 369.884 313.085 368.086 308.528C365.442 301.827 365.472 294.116 368.333 287.253L368.734 286.29C371.753 279.046 377.583 273.638 384.526 271.322C387.591 270.299 390.786 267.803 393.048 262.376Z" fill="#50BFA5"/>
<path d="M217.805 395.386C210.616 385.624 171.196 333.325 145.492 324.61C117.12 314.99 143.86 353.198 143.86 353.198C143.86 353.198 93.5286 295.555 75.0585 300.752C58.1275 305.515 75.0585 341.245 75.0585 341.245C75.0585 341.245 55.9893 321.46 32.8643 321.46C10.358 321.46 48.588 391.63 50.6503 395.386H217.805Z" fill="#96D9C9"/>
<path d="M430.15 186.014C430.15 186.014 422.893 195.825 418.621 199.676C414.349 203.526 410.276 207.212 404.83 219.46C399.383 231.708 399.54 233.111 398.093 236.265C396.647 239.419 389.047 251.774 388.472 254.239C387.896 256.704 375.488 268.51 371.648 274.516C367.808 280.521 361.506 288.901 360.68 293.747L361.8 293.723C361.8 293.723 365.142 282.768 374.988 273.271C384.833 263.774 384.256 261.388 393.878 257.621C403.501 253.854 412.439 239.152 412.439 239.152C412.439 239.152 424.78 223.823 426.393 214.685C428.006 205.547 432.067 197.941 430.15 186.014Z" fill="#256653"/>
<path d="M422.624 166.372C422.624 166.372 420.742 173.519 417.568 177.265C414.393 181.01 411.901 183.147 410.468 187.687C409.035 192.226 404.984 203.843 397.492 208.17C389.999 212.498 385.324 229.796 379.432 233.938C373.54 238.08 372.08 241.733 370.936 251.019C369.792 260.305 369.959 273.602 359.472 288.35L358.832 283.891C358.832 283.891 366.726 271.579 367.296 263.383C367.867 255.187 366.396 242.235 369.177 236.872C371.959 231.509 366.595 229.023 371.899 221.179C377.203 213.336 376.483 209.986 382.748 203.613C382.748 203.613 383.298 203.377 385.915 197.332C388.533 191.286 400.864 182.041 406.239 179.17C411.613 176.299 419.501 171.521 422.624 166.372Z" fill="#256653"/>
<path d="M396.381 197.64C396.381 197.64 388.857 205.98 387.402 212.172C385.946 218.365 385.467 223.573 380.855 231.416C376.244 239.258 380.455 245.951 377.854 250.268C375.254 254.584 373.899 260.115 373.01 264.343C372.122 268.57 362.812 281.011 360.298 287.846C357.784 294.681 358.987 294.999 358.987 294.999C358.987 294.999 362.088 285.922 364.202 283.185C366.316 280.449 373.023 270.874 374.951 267.006C376.88 263.139 380.218 261.169 384.139 254.779C388.06 248.39 392.738 243.343 394.675 233.393C396.613 223.444 402.729 213.933 396.381 197.64Z" fill="#3C8F7C"/>
<path d="M364.007 289.395C364.007 289.395 369.236 277.76 380.09 279.114C390.944 280.468 396.674 284.174 406.136 277.047C415.598 269.92 423.093 256.779 426.024 254.916C426.024 254.916 422.717 251.978 415.115 256.571C407.512 261.165 402.096 264.735 397.691 267.415C393.285 270.094 390.865 267.058 386.527 268.476C382.891 269.664 377.492 274.341 375.01 276.875C374.203 277.698 373.304 278.415 372.325 278.998C371.435 279.528 370.369 280.184 369.666 280.687C368.262 281.693 363.18 289.24 363.18 289.24L364.007 289.395Z" fill="#3C8F7C"/>
<path d="M360.754 286.326C360.754 286.326 367.809 272.257 366.938 264.319C366.068 256.381 359.451 249.053 360.788 244.525C362.124 239.998 369.908 228.777 367.871 218.515C367.871 218.515 364.481 226.401 362.539 227.865C360.596 229.33 348.419 234.178 348.113 244.424C347.806 254.669 357.535 259.451 359.416 262.948C361.298 266.444 364.702 267.269 364.298 269.191C363.894 271.113 363.011 278.243 360.354 284.844L360.754 286.326Z" fill="#3C8F7C"/>
<path d="M367.052 277.296L375.801 262.765C375.801 262.765 381.702 250.801 385.84 240.633C389.978 230.465 396.38 197.64 396.38 197.64C396.38 197.64 388.856 205.98 387.401 212.172C385.945 218.365 385.466 223.573 380.855 231.416C376.244 239.258 380.454 245.951 377.854 250.268C375.253 254.585 373.899 260.115 373.01 264.343C372.121 268.57 362.811 281.011 360.297 287.846C358.92 291.59 358.659 293.377 358.704 294.228C359.236 287.844 367.052 277.296 367.052 277.296Z" fill="#327F6B"/>
<path d="M394.959 274.165C390.068 274.004 385.963 272.653 379.455 275.627C372.946 278.601 368.657 282.426 368.657 282.426C368.657 282.426 365.126 286.486 363.549 288.697C363.317 289.036 363.18 289.239 363.18 289.239L364.008 289.395C364.008 289.395 369.237 277.759 380.09 279.114C390.944 280.468 396.674 284.173 406.137 277.047C415.599 269.92 423.094 256.779 426.025 254.916C426.025 254.916 416.635 259.458 410.448 263.995C404.262 268.533 399.85 274.326 394.959 274.165Z" fill="#327F6B"/>
<path d="M362.539 227.865C360.596 229.329 348.419 234.178 348.113 244.423C347.806 254.668 357.535 259.451 359.416 262.947C361.298 266.444 364.702 267.269 364.298 269.191C363.894 271.113 363.011 278.243 360.354 284.843L360.529 285.491C361.677 282.942 363.35 279.042 364.29 276C365.816 271.059 365.499 268.783 364.859 264.324C364.219 259.865 356.456 249.209 355.018 244.251C353.581 239.292 362.255 233.702 364.603 230.555C366.952 227.408 367.871 218.515 367.871 218.515C367.871 218.515 364.481 226.4 362.539 227.865Z" fill="#327F6B"/>
<path d="M232.348 395.386C239.536 385.624 278.957 333.325 304.66 324.61C333.033 314.99 306.292 353.198 306.292 353.198C306.292 353.198 356.624 295.555 375.094 300.752C392.025 305.515 375.094 341.245 375.094 341.245C375.094 341.245 394.163 321.46 417.288 321.46C439.795 321.46 401.565 391.63 399.503 395.386H232.348Z" fill="#96D9C9"/>
<path d="M105.872 395.087C82.8922 362.357 54.9547 332.106 21.7351 305.8C21.4034 305.537 20.956 306.143 21.2897 306.411C52.7959 331.776 80.6697 361.729 104.125 395.577L105.872 395.087Z" fill="#256653"/>
<path d="M40.268 335.099C41.0359 334.529 43.0262 332.365 45.6816 331.686C48.1962 330.797 51.3759 331.393 51.2663 331.466C51.3324 331.625 49.1719 329.053 45.7985 328.305C42.5578 327.314 38.1044 328.147 36.649 329.493C33.346 331.834 33.0816 335.811 34.7187 336.549C36.3451 337.334 38.5184 336.251 40.268 335.099Z" fill="#256653"/>
<path d="M26.7369 322.615C27.5048 322.045 29.495 319.881 32.1505 319.202C34.665 318.313 37.8448 318.908 37.7351 318.982C37.8012 319.141 35.6407 316.569 32.2674 315.821C29.0266 314.83 24.5732 315.662 23.1179 317.009C19.8146 319.35 19.5505 323.327 21.1873 324.065C22.8142 324.849 24.9874 323.766 26.7369 322.615Z" fill="#256653"/>
<path d="M63.0406 329.554C62.321 330.024 59.7603 330.968 58.5838 333.111C57.2192 335.041 57.2385 338.169 57.3331 338.099C57.4819 338.222 55.271 335.231 55.1331 331.865C54.724 328.524 56.3874 324.808 58.0202 324.024C61.0021 321.957 65.084 323.306 65.5309 325.089C66.028 326.881 64.53 328.424 63.0406 329.554Z" fill="#256653"/>
<path d="M66.5621 284.94C87.1264 318.578 102.135 355.946 110.716 395.644L112.126 395.248C103.58 356.381 88.6727 319.079 68.1426 285.478C63.3711 277.668 58.2189 268.404 49.2853 265.358C49.113 265.299 49.0477 265.573 49.212 265.638C57.3716 268.858 62.0978 277.637 66.5621 284.94Z" fill="#256653"/>
<path d="M64.6741 264.079C64.1447 264.894 62.1183 267.021 61.5228 269.815C60.7231 272.466 61.3545 275.784 61.4225 275.668C61.5753 275.733 59.0778 273.522 58.2974 270.004C57.2873 266.631 57.9943 261.95 59.2508 260.4C61.4206 256.895 65.212 256.54 65.9482 258.239C66.7296 259.927 65.7386 262.224 64.6741 264.079Z" fill="#256653"/>
<path d="M59.7563 294.105C60.5242 293.534 62.5144 291.371 65.1699 290.692C67.6845 289.802 70.8642 290.398 70.7546 290.472C70.8207 290.63 68.6602 288.059 65.2868 287.311C62.046 286.32 57.5926 287.152 56.1373 288.499C52.8343 290.84 52.5699 294.817 54.207 295.554C55.8336 296.339 58.0066 295.256 59.7563 294.105Z" fill="#256653"/>
<path d="M67.1941 307.265C67.9619 306.694 69.952 304.53 72.6077 303.852C75.1222 302.962 78.3018 303.558 78.1923 303.631C78.2582 303.79 76.0979 301.218 72.7244 300.47C69.4838 299.479 65.0302 300.312 63.5748 301.658C60.2716 304 60.0075 307.977 61.6445 308.714C63.2714 309.499 65.4444 308.416 67.1941 307.265Z" fill="#256653"/>
<path d="M75.0696 278.97C74.4239 279.688 72.1027 281.453 71.0943 284.114C69.9057 286.599 70.0298 289.98 70.1142 289.876C70.2551 289.967 68.1218 287.37 67.8806 283.768C67.3911 280.269 68.7938 275.765 70.2678 274.441C72.9382 271.338 76.7357 271.614 77.2067 273.414C77.7244 275.209 76.3999 277.314 75.0696 278.97Z" fill="#256653"/>
<path d="M85.9794 293.894C85.0605 294.404 81.851 295.33 80.2365 297.845C78.409 300.084 78.1771 303.913 78.2985 303.835C78.4704 304 76.0107 300.142 76.1169 296.012C75.8895 291.887 78.2283 287.492 80.2902 286.678C84.1073 284.417 88.9907 286.433 89.3915 288.654C89.8529 290.892 87.8941 292.644 85.9794 293.894Z" fill="#256653"/>
<path d="M97.4682 316.498C96.4804 316.839 93.1678 317.186 91.1724 319.381C89.0117 321.267 88.168 325 88.3002 324.945C88.4432 325.137 86.6378 320.901 87.4059 316.849C87.8441 312.743 90.8553 308.822 93.0186 308.382C97.1443 306.826 101.634 309.674 101.673 311.934C101.768 314.221 99.556 315.604 97.4682 316.498Z" fill="#256653"/>
<path d="M45.7718 269.371C46.2021 268.999 47.2892 267.627 48.8317 267.104C50.2819 266.463 52.1878 266.669 52.126 266.718C52.1717 266.809 50.7862 265.386 48.7594 265.099C46.801 264.661 44.2012 265.357 43.3966 266.22C41.5405 267.757 41.5502 270.122 42.5495 270.483C43.5445 270.873 44.785 270.132 45.7718 269.371Z" fill="#256653"/>
<path d="M49.8881 259.766C49.8691 260.35 49.4955 262.089 50.0417 263.688C50.4421 265.283 51.7619 266.737 51.7608 266.656C51.8575 266.639 49.9361 266.358 48.481 264.853C46.9542 263.495 45.8941 260.913 46.0552 259.719C46.0839 257.241 47.8782 255.806 48.7613 256.414C49.6636 257.001 49.8613 258.482 49.8881 259.766Z" fill="#256653"/>
<path d="M16.9987 309.899C17.4291 309.526 18.5159 308.155 20.0584 307.631C21.5086 306.99 23.4145 307.197 23.3527 307.245C23.3984 307.336 22.013 305.914 19.9861 305.626C18.0277 305.188 15.428 305.885 14.6231 306.748C12.7672 308.284 12.7767 310.649 13.776 311.01C14.7715 311.4 16.0117 310.66 16.9987 309.899Z" fill="#256653"/>
<path d="M21.9663 300.211C21.9017 300.792 21.3936 302.492 21.8127 304.133C22.0868 305.757 23.2887 307.32 23.2938 307.239C23.3913 307.23 21.4984 306.785 20.1661 305.16C18.7507 303.676 17.8957 301.012 18.1501 299.835C18.3724 297.368 20.273 296.091 21.1054 296.773C21.9591 297.437 22.0401 298.929 21.9663 300.211Z" fill="#256653"/>
<path d="M26.3961 364.834C47.3946 367.245 66.9515 376.953 85.778 386.42C98.4736 392.804 97.8333 394.622 100.419 395.573C100.838 395.727 101.257 395.25 101.053 394.828C100.058 392.764 97.4501 391.368 95.6352 390.181C93.5227 388.799 91.3157 387.578 89.0761 386.439C84.2842 384.002 79.3673 381.809 74.4827 379.586C64.5455 375.064 54.4471 370.811 43.949 367.931C38.1936 366.353 32.3372 365.215 26.4099 364.655C26.2996 364.645 26.2867 364.821 26.3961 364.834Z" fill="#256653"/>
<path d="M43.5227 357.73C43.386 358.632 42.4888 361.252 43.0422 363.84C43.3703 366.392 45.1493 368.912 45.1625 368.787C45.3153 368.779 42.3891 367.957 40.4099 365.332C38.2923 362.921 37.1222 358.706 37.591 356.887C38.0896 353.053 41.1335 351.189 42.3908 352.309C43.6817 353.401 43.7161 355.736 43.5227 357.73Z" fill="#256653"/>
<path d="M62.0262 364.668C61.8896 365.57 60.9923 368.19 61.5457 370.778C61.8741 373.33 63.6531 375.85 63.6663 375.725C63.8191 375.717 60.8929 374.895 58.9136 372.269C56.7963 369.859 55.6259 365.644 56.095 363.825C56.5933 359.99 59.6373 358.126 60.8946 359.247C62.1854 360.338 62.2198 362.673 62.0262 364.668Z" fill="#256653"/>
<path d="M80.8196 373.442C80.6832 374.345 79.7855 376.964 80.3391 379.552C80.6673 382.104 82.4463 384.625 82.4594 384.499C82.6123 384.491 79.6858 383.669 77.7068 381.044C75.5892 378.633 74.4189 374.418 74.8879 372.599C75.3863 368.765 78.4302 366.901 79.6877 368.021C80.9786 369.113 81.013 371.448 80.8196 373.442Z" fill="#256653"/>
<path d="M38.006 375.833C38.3862 375.088 39.1209 372.633 40.9078 371.049C42.5095 369.36 45.1633 368.543 45.1061 368.643C45.2145 368.738 42.6203 367.633 39.7625 368.412C36.9177 368.95 33.8093 371.372 33.1858 372.986C31.5098 376.104 32.7597 379.257 34.2832 379.166C35.8164 379.116 37.086 377.416 38.006 375.833Z" fill="#256653"/>
<path d="M57.2404 382.965C57.6206 382.221 58.3553 379.766 60.1422 378.182C61.7439 376.493 64.3977 375.676 64.3405 375.776C64.4491 375.871 61.8547 374.766 58.9969 375.544C56.152 376.083 53.0437 378.505 52.4202 380.119C50.7442 383.236 51.994 386.39 53.5176 386.299C55.0505 386.249 56.3201 384.548 57.2404 382.965Z" fill="#256653"/>
<path d="M23.3479 368.489C23.6805 368.074 24.4515 366.634 25.7734 365.887C26.9922 365.048 28.7619 364.902 28.7132 364.957C28.7695 365.032 27.2795 363.979 25.387 364.072C23.5328 364.017 21.2754 365.108 20.6803 366.035C19.2347 367.76 19.6217 369.913 20.59 370.067C21.5586 370.248 22.5703 369.356 23.3479 368.489Z" fill="#256653"/>
<path d="M25.5718 359.015C25.6479 359.551 25.5856 361.2 26.3388 362.561C26.9585 363.944 28.3937 365.038 28.3799 364.965C28.4649 364.932 26.6695 365.013 25.1032 363.896C23.4953 362.927 22.1162 360.761 22.0724 359.644C21.7024 357.382 23.1076 355.759 24.0096 356.158C24.9255 356.536 25.3423 357.85 25.5718 359.015Z" fill="#256653"/>
<path d="M329.873 349.978C387.935 289.167 387.935 190.572 329.873 129.76C271.812 68.949 177.675 68.9489 119.614 129.76C61.5525 190.572 61.5526 289.166 119.614 349.978C177.676 410.789 271.812 410.789 329.873 349.978Z" fill="#013819"/>
<path d="M320.612 340.279C373.56 284.824 373.56 194.914 320.612 139.459C267.665 84.0042 181.821 84.0042 128.873 139.459C75.9261 194.914 75.9262 284.824 128.873 340.279C181.821 395.734 267.665 395.734 320.612 340.279Z" fill="#04B851"/>
<path d="M305.353 324.305C349.877 277.672 349.877 202.066 305.353 155.433C260.829 108.801 188.641 108.801 144.118 155.433C99.5937 202.066 99.5937 277.672 144.118 324.305C188.641 370.937 260.829 370.937 305.353 324.305Z" fill="#FCF5EB"/>
<path d="M285.341 303.339C318.809 268.286 318.809 211.453 285.341 176.4C251.873 141.347 197.61 141.347 164.142 176.4C130.674 211.453 130.674 268.286 164.142 303.339C197.61 338.392 251.873 338.392 285.341 303.339Z" fill="#04B851"/>
<path d="M267.773 284.94C291.539 260.048 291.539 219.691 267.773 194.799C244.007 169.907 205.474 169.907 181.708 194.799C157.942 219.69 157.942 260.048 181.708 284.94C205.474 309.831 244.007 309.831 267.773 284.94Z" fill="#FCF5EB"/>
<path d="M240.268 239.87C240.268 248.846 233.32 256.123 224.749 256.123C216.178 256.123 209.23 248.846 209.23 239.87C209.23 230.893 216.178 223.616 224.749 223.616C233.32 223.616 240.268 230.893 240.268 239.87Z" fill="#013819"/>
<path d="M320.02 159.19L319.469 148.63L353.601 120.67L351.816 135.96L318.367 163.362L320.02 159.19Z" fill="#184655"/>
<path d="M322.544 162.746L332.197 165.85L366.329 137.889L351.73 136.02L318.281 163.422L322.544 162.746Z" fill="#12353D"/>
<path d="M223.57 241.217C224.346 242.256 225.78 242.44 226.772 241.627L322.933 162.851L320.123 159.087L223.961 237.863C222.969 238.676 222.794 240.177 223.57 241.217Z" fill="#184655"/>
<path d="M367.062 270.465C367.062 271.474 367.423 272.293 367.867 272.293C368.311 272.293 368.671 271.474 368.671 270.465C368.671 269.455 368.311 268.637 367.867 268.637C367.423 268.637 367.062 269.455 367.062 270.465Z" fill="#F7A491"/>
<path d="M359.479 388.977C359.688 387.404 359.754 384.986 359.732 382.197H364.994C364.446 386.147 364.018 389.221 364.018 389.221L364.149 390.47L364.152 394.156H352.641C352.641 394.156 355.084 393.01 358.502 390.744C358.755 390.577 359.337 390.043 359.479 388.977Z" fill="#F7A491"/>
<path d="M381.921 388.051L380.391 383.459H384.396C384.605 386.407 384.683 388.396 384.683 388.396L385.701 391.415L386.735 395.002C386.735 395.002 383.328 395.921 381.541 394.888L381.739 391.316L381.921 388.051Z" fill="#F7A491"/>
<path d="M361.136 288.257C362.525 286.268 368.257 280.507 368.894 280.518C370.75 280.552 376.842 280.555 378.034 281.189L377.976 292.156C377.782 293.077 373.576 307.417 373.82 310.556L373.791 310.585C370.266 314.151 364.706 313.871 361.482 309.965C361.482 309.965 361.496 305.615 360.999 301.647C360.222 295.431 357.686 293.198 361.136 288.257Z" fill="#F7CC7F"/>
<path d="M370.769 274.344C370.769 274.344 370.609 278.391 370.956 279.925C371.303 281.459 371.765 281.575 368.786 282.042C367.617 282.225 366.488 282.499 366.488 282.499C366.488 282.499 366.794 280.246 366.84 279.295C366.916 277.729 366.496 272.892 366.496 272.892L370.769 274.344Z" fill="#F7A491"/>
<path d="M368.494 276.358C367.881 276.705 367.308 276.91 366.78 276.995C366.679 275.084 366.488 272.892 366.488 272.892L370.565 274.278C370.092 275.105 369.42 275.834 368.494 276.358Z" fill="#04B851"/>
<path d="M381.739 391.302C383.311 392.036 385.003 391.593 385.684 391.359L385.91 391.997L386.777 395.025C386.777 395.025 383.327 395.922 381.539 394.888L381.739 391.302Z" fill="#E25A44"/>
<path d="M364.274 395.072H352.307C351.864 395.03 351.756 394.651 351.91 394.418C352.226 393.937 353.622 393.584 355.191 392.818C357.943 393.122 363.719 391.132 364.154 390.463C364.405 391.802 364.52 395.015 364.274 395.072Z" fill="#E25A44"/>
<path d="M365.18 310.767L372.193 363.023L378.581 387.117H385.529C385.529 387.117 383.917 367.705 380.46 360.829C380.46 360.829 378.95 342.401 377.44 331.132C377.214 329.447 378.332 325.074 378.041 323.945C375.8 315.258 373.827 310.557 373.827 310.557L365.18 310.767Z" fill="#355389"/>
<path d="M369.515 333.36L367.892 353.434C367.892 353.434 369.551 364.906 368.412 372.518C367.274 380.13 365.765 387.117 365.765 387.117H359.378L358.108 349.208C358.108 349.208 355.653 328.61 356.503 323.024C357.353 317.438 361.489 309.965 361.489 309.965L371.536 310.446C371.536 310.446 374.261 320.671 373.8 324.103C373.458 326.651 369.515 333.36 369.515 333.36Z" fill="#466EB6"/>
<path d="M379.396 298.932C386.989 296.544 384.956 289.533 384.914 289.8C384.936 289.583 385.651 288.7 386.005 287.946C387.479 284.802 385.534 281.016 383.306 279.707C384.784 275.709 383.316 271.875 380.534 270.277C379.129 269.47 377.948 268.323 376.998 266.996C374.891 264.052 371.06 261.088 366.453 262.056C361.895 263.277 367.998 266.043 367.393 270.636C367.087 272.964 367.967 272.63 369.34 274.502C367.363 278.141 368.507 284.249 371.537 287.02C370.052 293.577 371.647 301.368 379.396 298.932Z" fill="#184655"/>
<path d="M373.75 266.881C374.647 270.755 369.792 273.569 365.947 273.672C363.448 273.739 362.3 273.47 361.896 270.712C361.241 266.239 363 263.512 365.465 262.384C368.647 260.928 373.01 263.684 373.75 266.881Z" fill="#184655"/>
<path d="M368.104 264.274C368.104 264.274 369.794 264.869 370.694 266.657C371.595 268.444 371.147 274.168 367.399 276.056C363.651 277.943 361.928 273.657 362.2 270.494C362.472 267.331 363.557 263.192 368.104 264.274Z" fill="#F7A491"/>
<path d="M365.766 273.084L363.105 273.042C363.105 273.042 363.151 274.12 364.321 274.175C365.747 274.242 365.766 273.084 365.766 273.084Z" fill="white"/>
<path d="M372.022 270.988C372.577 268.03 372.36 265.789 370.353 264.706C368.346 263.623 366.631 262.55 364.836 264.496L364.43 264.735C364.43 264.735 367.818 265.716 368.007 267.601C368.196 269.486 369.998 271.726 369.72 272.652C369.443 273.578 369.123 275.424 369.123 275.424L369.865 274.785C369.865 274.785 371.468 273.946 372.022 270.988Z" fill="#184655"/>
<path d="M368.53 269.856C368.25 270.673 368.462 271.493 369.002 271.688C369.543 271.883 370.209 271.378 370.489 270.561C370.768 269.744 370.557 268.924 370.016 268.73C369.475 268.535 368.81 269.039 368.53 269.856Z" fill="#F7A491"/>
<path d="M83.5754 340.312H118.089L109.852 395.197H113.413L159.87 85.6445H156.31L155.61 90.3084H121.024L121.723 85.6445H118.162L71.6602 395.197H75.2205L83.5754 340.312ZM142.786 175.758L137.088 213.723H102.538L108.225 175.758H142.786ZM108.7 172.585L114.387 134.62H148.96L143.262 172.585H108.7ZM136.612 216.897L130.914 254.862H96.3752L102.062 216.897H136.612ZM130.438 258.035L124.74 296H90.2131L95.9 258.035H130.438ZM155.134 93.4816L149.436 131.447H114.862L120.549 93.4816H155.134ZM84.0508 337.138L89.7377 299.173H124.263L118.565 337.138H84.0508Z" fill="#F7CC7F"/>
<path d="M230.614 34.5646C230.577 34.7035 230.29 35.6559 229.849 37.0747L234.466 38.0498C234.514 37.2588 234.56 36.5979 234.614 36.1184C234.995 32.7649 236.498 31.8543 237.273 29.9922C238.047 28.13 241.05 26.949 240.68 26.3175C240.309 25.686 237.512 28.2437 236.84 27.9697C236.168 27.696 239.233 23.8479 238.865 23.3348C238.186 22.3901 235.272 27.3701 234.93 26.9587C234.588 26.5474 237.356 21.2912 236.248 21.2249C235.14 21.1586 233.911 26.9133 233.329 26.6598C232.746 26.4065 234.941 21.3571 233.825 20.6037C233.229 20.201 231.114 29.5895 230.171 30.1308C229.227 30.6722 227.899 26.9714 226.998 27.2855C226.098 27.6 230.771 33.9838 230.614 34.5646Z" fill="#F79C8D"/>
<path d="M187.643 14.6067C187.623 14.7496 187.509 15.741 187.352 17.2236L182.762 16.118C183.03 15.3766 183.248 14.7545 183.387 14.2942C184.362 11.0749 183.35 9.59578 183.378 7.56512C183.406 5.53423 181.135 3.161 181.722 2.74565C182.308 2.3303 183.849 5.869 184.569 5.90973C185.289 5.95047 184.012 1.12076 184.55 0.812701C185.54 0.245548 186.233 6.04061 186.707 5.8138C187.181 5.58698 186.729 -0.397508 187.764 0.0209569C188.8 0.439421 187.653 6.21245 188.283 6.23337C188.914 6.2543 188.903 0.70608 190.216 0.501745C190.917 0.392455 189.147 9.85888 189.793 10.7597C190.439 11.6605 193.107 8.86302 193.804 9.53813C194.501 10.2132 187.729 14.0097 187.643 14.6067Z" fill="#F79C8D"/>
<path d="M235.018 36.6185C235.018 36.6185 229.519 35.24 229.466 35.7026C228.311 45.835 227.792 49.4997 227.596 49.6047C226.93 49.9638 218.095 41.5025 216.519 40.9291C215.766 40.6549 214.946 40.7005 214.16 40.7248C212.286 40.7827 211.916 40.79 211.916 40.79C211.863 40.7936 211.848 40.7947 211.848 40.7947L211.858 42.6406C213.969 44.6301 218.802 74.7649 219.209 74.7449C219.664 74.7226 229.217 77.2405 229.049 76.3976C229.021 76.2605 222.572 70.7332 220.743 62.7561C220.129 60.0781 219.826 57.1945 219.493 54.6708C221.615 55.7855 229.905 60.0585 231.219 59.4941C235.306 57.7383 235.018 36.6185 235.018 36.6185Z" fill="#F7CC7F"/>
<path d="M251.469 90.1243C251.469 90.1243 260.357 97.416 260.653 98.7088C261.08 100.571 269.219 98.1229 267.256 97.7439C266.805 97.6568 265.36 97.2729 265.241 97.2063C264.606 96.8506 256.697 86.8691 256.697 86.8691L251.469 90.1243Z" fill="#F7A491"/>
<path d="M271.071 97.7439L265.397 97.26C265.397 97.26 263.775 98.6661 260.657 98.732C260.657 98.732 260.159 100.223 260.396 101.967C260.437 102.268 260.485 103.177 260.774 103.156C261.823 103.081 264.616 102.353 267.799 101.687C267.799 101.687 272.076 100.738 274.547 99.1898C277.017 97.642 271.071 97.7439 271.071 97.7439Z" fill="#F7CC7F"/>
<path d="M211.642 71.8327C211.642 71.8327 218.151 72.9781 225.349 71.2144C233.679 69.1735 242.889 67.2868 245.588 68.9299C247.76 70.2526 261.324 91.7196 261.324 91.7196L256.086 95.723L241.151 78.2067C241.151 78.2067 222.096 85.5704 217.816 84.7544C208.069 82.8955 207.93 74.743 211.642 71.8327Z" fill="#355389"/>
<path d="M231.99 104.527C231.99 104.527 231.595 115.786 231.349 117.692C231.105 119.59 235.911 125.308 235.297 123.319C235.155 122.862 234.791 121.348 234.791 121.206C234.788 120.452 236.573 107.608 236.573 107.608L231.99 104.527Z" fill="#F7A491"/>
<path d="M238.371 127.421L234.822 121.376C234.822 121.376 232.87 120.55 231.333 117.708C231.333 117.708 229.844 117.957 228.491 119.004C228.258 119.184 226.668 120.402 226.779 120.683C227.187 121.717 229.351 123.932 231.718 126.35C231.718 126.35 235.073 129.185 237.548 130.726C240.022 132.267 238.371 127.421 238.371 127.421Z" fill="#F7CC7F"/>
<path d="M242.545 82.3288C240.269 79.15 221.901 76.131 221.901 76.131L216.779 65.8206L205.453 73.1355C205.453 73.1355 206.585 82.5745 207.435 85.0964C208.568 88.4575 216.179 88.6286 220.828 88.5786C225.105 88.5325 232.918 89.446 232.918 89.446L230.275 113.862C230.275 113.862 235.47 115.1 236.929 114.9C237.094 114.878 245.376 86.2828 242.545 82.3288Z" fill="#466EB6"/>
<path d="M211.906 40.812L205.517 41.1857C205.517 41.1857 205.37 41.2327 205.325 41.2414C204.805 41.3424 205.278 60.8456 205.742 68.1297C206.206 75.4141 207.148 78.4743 207.148 78.4743C207.148 78.4743 215.814 76.8627 218.473 75.7814C219.577 75.3327 222.249 71.8347 222.249 71.8347C222.249 71.8347 219.519 67.9917 218.145 61.7495C217.084 56.9351 215.777 48.4007 215.028 46.6193C213.31 42.5282 211.906 40.812 211.906 40.812Z" fill="#184655"/>
<path d="M205.697 35.2763L205.516 41.1853C205.516 41.1853 209.652 48.6502 211.776 47.6098C213.558 46.7368 211.976 41.0586 211.976 41.0586C211.976 41.0586 211.667 39.7567 211.239 38.2609C210.94 37.2159 210.692 36.0836 210.71 35.2529C210.755 33.2333 205.697 35.2763 205.697 35.2763Z" fill="#F7A491"/>
<path d="M210.714 35.2529C210.759 33.2333 205.701 35.2763 205.701 35.2763L205.684 35.8536C205.854 36.1225 206.042 36.3505 206.248 36.5259C207.608 37.6822 209.574 38.2026 211.173 38.0107C210.907 37.0383 210.697 36.0177 210.714 35.2529Z" fill="#04B851"/>
<path d="M210.634 21.7991C210.634 21.7991 212.742 25.127 212.9 27.9278C213.057 30.7286 212.491 32.6397 212.491 32.6397L205.727 24.1716L210.634 21.7991Z" fill="#F7CC7F"/>
<path d="M213.603 27.3549C213.698 28.3356 213.335 29.1777 212.79 29.236C212.246 29.2941 211.728 28.5462 211.632 27.5657C211.537 26.585 211.901 25.7429 212.445 25.6846C212.99 25.6263 213.508 26.3742 213.603 27.3549Z" fill="#F48C7F"/>
<path d="M203.536 25.5282C203.382 25.4937 203.396 33.6461 205.653 35.5646C207.909 37.4831 211.836 37.6514 212.982 35.7191C214.251 33.5816 213.044 24.9913 209.689 23.1667C206.333 21.3424 203.536 25.5282 203.536 25.5282Z" fill="#F7A491"/>
<path d="M202.967 20.4727C201.245 22.0542 200.411 23.2096 199.246 26.0218C197.813 29.4793 200.656 33.0616 203.04 34.4853C205.423 35.9087 205.622 37.63 205.622 37.63L205.72 36.5689C205.767 36.1807 205.753 35.866 205.689 35.5931C205.614 35.2723 205.473 35.0081 205.35 34.7321C205.147 34.2778 204.496 32.721 204.241 32.3101C203.57 31.2266 203.438 30.9922 203.769 29.9625C204.024 29.1697 203.729 27.4221 204.123 26.1155L207.332 25.3906C207.332 25.3906 209.34 24.8851 210.354 23.6597C213.266 20.1415 207.51 16.2186 202.967 20.4727Z" fill="#F7CC7F"/>
<path d="M204.532 30.8543C204.928 31.7491 204.846 32.6693 204.349 32.9101C203.853 33.151 203.13 32.6208 202.734 31.7262C202.339 30.8314 202.421 29.9112 202.918 29.6704C203.414 29.4295 204.137 29.9597 204.532 30.8543Z" fill="#F7A491"/>
<path d="M205.52 41.1851C205.52 41.1851 199.185 40.8759 197.55 40.1016C196.559 39.6321 188.419 32.7622 188.419 32.7622L188.51 14.3684L182.786 13.9124C182.786 13.9124 179.817 34.2433 180.845 36.4687C181.907 38.7669 193.822 48.228 196.205 52.3334C197.578 54.6986 200.441 86.8661 200.875 87.1557C203.958 88.8362 213.478 90.5145 213.254 89.4951C207.056 61.3228 205.52 41.1851 205.52 41.1851Z" fill="#F7CC7F"/>
<path d="M208.223 32.977L211.911 31.7507C211.911 31.7507 212.27 33.2461 210.663 33.8344C208.704 34.5518 208.223 32.977 208.223 32.977Z" fill="white"/>
<path d="M365.576 104.556C366.051 104.472 366.289 103.815 366.047 103.401C365.657 102.736 365.278 102.064 364.895 101.394C364.05 99.9147 363.973 99.8839 364.041 99.7152C364.205 99.3126 364.93 99.4964 365.19 99.5899C365.768 99.7976 366.3 100.16 366.914 100.242C368.113 100.401 368.985 99.4417 368.452 98.2254C367.964 97.1123 367.412 96.0196 366.855 94.9358C368.14 95.2114 369.419 95.5255 370.706 95.7814C371.163 95.8722 371.477 95.4462 371.293 95.0033C370.884 94.0185 369.673 91.1026 369.274 90.1413C369.171 89.8929 368.559 88.7937 368.771 88.5834C368.961 88.3944 369.842 88.6506 370.044 88.6813C371.162 88.8516 371.558 88.8955 375.206 89.362C375.64 89.4176 376.004 88.7957 375.745 88.4169C373.197 84.6892 373.642 84.35 372.734 83.8276C372.531 83.7105 372.338 83.855 372.306 84.0749C372.224 84.6356 372.243 84.7754 373.203 86.5534C373.451 87.0133 373.71 87.4662 373.979 87.9121C369.56 87.2572 368.461 86.9814 367.863 88.0202C367.448 88.7412 367.649 88.9373 369.954 94.4497C368.621 94.0878 367.275 93.8122 365.924 93.5086C365.412 93.3933 365.035 93.9008 365.255 94.3956C367.022 98.3739 367.223 98.4022 367.288 98.7966C367.29 98.8075 367.521 98.8631 367.175 98.8306C366.588 98.7754 365.507 97.8811 364.383 98.0178C363.394 98.138 362.452 98.9842 362.676 100.113C362.806 100.768 363.04 101.001 364.216 103.192C363.056 103.432 361.928 103.816 360.772 104.372C360.271 104.613 359.971 104.839 359.657 105.318C359.402 105.709 359.72 106.343 360.181 106.316C361.491 106.239 362.059 105.177 365.576 104.556Z" fill="#F7CC7F"/>
<path d="M388.798 115.559C388.632 114.392 388.553 113.275 388.583 112.051C388.589 111.82 388.551 111.39 388.774 111.245C389.31 110.897 390.113 111.863 392.175 112.334C393.069 112.539 394.902 113.045 395.294 111.786C395.496 111.141 395.365 110.326 395.363 109.657C395.361 109.149 395.378 108.641 395.385 108.133C398.733 109.122 398.542 109.328 399.3 108.981C399.498 108.891 399.6 108.576 399.483 108.381C399.048 107.661 399.136 107.866 394.927 106.574C394.543 106.457 394.071 106.735 394.073 107.192C394.076 107.88 394.249 110.994 394.211 111.38C394.177 111.355 394.017 111.386 393.982 111.385C392.585 111.334 391.409 110.805 390.141 110.257C389.102 109.808 387.691 109.799 387.365 111.192C387.189 111.948 387.262 113.508 387.369 114.709C385.331 114.026 383.297 113.327 381.255 112.659C380.856 112.528 380.282 112.838 380.314 113.339C380.405 114.732 380.45 116.124 380.484 117.518C379.286 117.105 378.154 116.498 377.127 115.721C376.37 115.149 375.407 116.259 377.411 117.565C378.509 118.334 379.716 118.895 381.01 119.252C381.439 119.37 381.952 119.084 381.954 118.57C381.958 117.19 381.902 115.806 381.82 114.427C383.858 115.081 385.904 115.714 387.942 116.368C388.443 116.529 388.871 116.076 388.798 115.559Z" fill="#04B851"/>
<path d="M395.841 143.522C395.849 143.947 396.108 144.218 396.49 144.29C398.362 144.644 400.215 144.826 402.095 144.49C403.073 144.316 402.724 142.791 401.767 142.899C400.268 143.069 398.721 143.159 397.208 142.955C397.244 141.777 397.389 140.612 397.665 139.472C397.77 139.039 397.497 138.457 397.012 138.471C395.803 138.506 391.232 138.784 391.192 138.835C391.196 138.826 391.203 138.793 391.188 138.708C391.099 138.198 391.456 136.468 391.419 135.678C391.377 134.79 390.252 134.468 389.57 134.399C388.186 134.26 386.652 135.306 385.304 134.743C384.007 134.202 385.466 132.072 384.421 130.408C383.615 129.125 382.23 129.511 380.043 129.952C379.507 130.06 378.984 130.173 378.714 130.725C378.647 130.862 378.635 131.063 378.756 131.181C379.414 131.821 380.204 131.533 382.202 131.187C382.456 131.143 382.886 130.985 383.112 131.182C383.867 131.838 382.762 133.64 383.655 135.16C384.351 136.344 385.744 136.562 386.926 136.413C387.852 136.296 388.995 135.731 389.936 136.081C389.884 136.924 389.81 137.774 389.82 138.615C389.832 139.533 390.28 140.173 391.163 140.249C392.14 140.333 393.155 140.193 394.13 140.146C394.786 140.115 395.442 140.086 396.098 140.049C395.911 141.193 395.819 142.349 395.841 143.522Z" fill="#3CB4C5"/>
<path d="M341.997 90.0365C336.768 85.5455 334.104 89.5866 335.609 91.4508C336.253 92.2494 337.399 92.3147 337.977 91.4103C338.241 90.9963 337.851 90.312 337.359 90.4734C336.952 90.607 336.856 90.1224 337.288 89.935C337.87 89.6825 338.578 90.13 339.08 90.4084C340.252 91.0579 341.779 91.8835 341.978 93.4218C342.275 95.7171 340.047 98.1453 336.745 96.8069C331.981 94.8764 332.208 86.7141 337.26 85.359C340.008 84.6216 342.962 85.8443 344.648 88.2121C344.978 88.6749 345.566 88.1331 345.388 87.669C344.04 84.1539 339.756 82.8139 336.507 84.0055C333.175 85.2275 331.515 88.9064 332.013 92.4627C332.534 96.1919 335.579 99.2945 339.294 98.8963C343.367 98.4594 345.652 93.1761 341.997 90.0365Z" fill="#3CB4C5"/>
<path d="M393.486 155.956C392.633 155.331 390.873 154.947 390.3 156.163C390.034 156.728 390.183 157.426 390.81 157.642C391.425 157.852 391.997 157.507 392.471 158.102C392.877 158.612 392.633 159.344 392.262 159.802C391.131 161.196 388.719 160.768 387.368 159.994C385.222 158.765 384.848 155.549 387.163 154.009C387.887 153.527 388.729 153.422 389.547 153.223C389.999 153.112 390.216 152.362 389.739 152.109C387.901 151.137 385.633 152.385 384.544 154.022C383.401 155.74 383.447 158.188 384.506 159.939C385.69 161.895 388.078 162.869 390.226 162.845C394.691 162.793 396.249 157.979 393.486 155.956Z" fill="#3C8F7C"/>
<path d="M305.301 300.259C305.165 300.753 305.086 300.917 304.912 301.249C303.79 303.388 301.186 306.44 301.186 306.44L299.172 301.688C299.172 301.688 299.5 300.196 300.07 298.062C302.015 298.594 303.868 298.903 305.301 300.259Z" fill="#F8A492"/>
<path d="M293.758 296.138C293.758 296.138 304.991 301.204 305.355 301.107C305.588 301.045 309.962 293.377 310.009 286.166C310.031 282.836 306.728 278.83 303.044 279.622C301.189 280.021 301.218 280.562 298.473 284.738C295.729 288.915 293.758 296.138 293.758 296.138Z" fill="#466EB6"/>
<path d="M284.171 386.977C284.171 386.977 284.438 391.597 284.44 391.607C284.538 392.194 284.923 393.643 284.923 394.176C284.923 396.18 275.84 392.476 277.875 391.588C278.06 391.507 279.025 390.899 279.086 390.218C279.179 389.167 279.416 387.041 279.416 387.041L284.171 386.977Z" fill="#F7A491"/>
<path d="M277.892 391.569C277.892 391.569 280.024 392.181 281.117 392.334C282.209 392.488 283.649 391.198 284.422 391.546C285.272 391.93 285.239 395.382 285.239 395.382C285.239 395.382 273.802 396.365 270.586 395.348C269.312 394.946 273.532 392.996 277.892 391.569Z" fill="#3C8F7C"/>
<path d="M302.742 386.977C302.742 386.977 303.008 391.597 303.01 391.607C303.108 392.194 303.494 393.643 303.494 394.176C303.494 396.18 294.41 392.476 296.446 391.588C296.63 391.507 297.882 390.446 297.942 389.764C298.036 388.713 297.986 387.042 297.986 387.042L302.742 386.977Z" fill="#F7A491"/>
<path d="M296.472 391.569C296.472 391.569 298.605 392.181 299.697 392.334C300.79 392.488 302.229 391.198 303.002 391.546C303.853 391.93 303.887 395.382 303.887 395.382C303.887 395.382 292.398 396.528 289.167 395.348C287.912 394.89 292.113 392.996 296.472 391.569Z" fill="#3C8F7C"/>
<path d="M301.905 272.083L302.935 278.904C302.935 278.904 299.011 282.205 296.723 281.508C294.804 280.924 296.12 278.296 296.12 278.296C296.12 278.296 297.143 274.655 296.829 272.745C296.515 270.837 301.905 272.083 301.905 272.083Z" fill="#F7A491"/>
<path d="M301.156 274.145C300.173 274.632 298.228 275.295 296.715 275.456C296.86 274.502 296.942 273.492 296.819 272.746C296.674 271.865 297.745 271.656 298.939 271.687C300.502 271.827 301.896 272.083 301.896 272.083L302.094 273.394C301.796 273.722 301.484 273.983 301.156 274.145Z" fill="#FE875E"/>
<path d="M306.858 264.214C307.02 264.215 305.306 271.835 302.655 273.146C300.004 274.458 296.05 273.774 295.308 271.722C294.488 269.452 297.481 261.677 301.21 260.689C304.939 259.702 306.858 264.214 306.858 264.214Z" fill="#F7A491"/>
<path d="M303.79 257.212C305.908 258.491 306.879 260.389 307.207 261.166C308.2 261.66 309.403 262.729 309.98 265.607C310.69 269.147 308.167 271.876 305.491 272.697C302.815 273.518 302.402 275.372 302.402 275.372L302.099 273.377C302.099 273.377 302.694 271.639 303.589 270.769C304.484 269.9 303.165 268.632 303.049 267.599C302.959 266.803 303.519 265.257 303.398 263.951C303.398 263.951 301.911 261.591 300.446 261.008C297.947 260.014 301.073 255.571 303.79 257.212Z" fill="#13375B"/>
<path d="M302.662 268.925C302.316 269.805 302.457 270.679 302.979 270.877C303.5 271.075 304.203 270.522 304.55 269.642C304.896 268.762 304.755 267.888 304.234 267.69C303.712 267.492 303.009 268.045 302.662 268.925Z" fill="#F7A491"/>
<path d="M292.787 303.009L277.355 300.374C277.355 300.374 279.111 295.744 279.739 295.744C280.366 295.744 291.407 300.792 291.407 300.792L292.286 302.639L292.787 303.009Z" fill="#F8A492"/>
<path d="M300.693 314.091C300.693 314.091 302.233 321.886 301.605 327.796C300.978 333.706 300.928 354.702 300.928 354.702L303.322 388.295L297.642 388.424C297.642 388.424 290.907 354.848 291.032 355.71C291.157 356.572 288.773 332.068 288.773 332.068L296.803 313.352L300.693 314.091Z" fill="#184655"/>
<path d="M299.19 313.722C299.19 313.722 300.194 320.74 298.939 323.818C297.684 326.897 288.177 357.1 288.052 359.563C287.926 362.025 284.765 389.245 284.765 389.245L278.16 389.051L276.73 358.788L279.723 320.752L282.628 311.136L299.19 313.722Z" fill="#13375B"/>
<path d="M302.932 278.905C302.932 278.905 301.304 280.024 299.784 279.894C298.265 279.765 296.117 278.296 296.117 278.296L296.416 277.237C296.416 277.237 300.346 276.637 300.445 276.702C300.544 276.767 302.932 278.905 302.932 278.905Z" fill="#F7A491"/>
<path d="M285.578 295.516C285.578 295.516 279.74 301.285 277.106 300.3C274.471 299.315 273.381 295.948 279.81 291.021C285.563 286.613 285.578 295.516 285.578 295.516Z" fill="#F8A492"/>
<path d="M281.617 302.64C282.484 297.699 288.769 282.323 289.271 279.491C289.515 278.113 292.905 278.083 296.133 278.263C299.544 278.453 302.932 278.904 302.932 278.904C302.932 278.904 305.951 279.424 307.28 280.727C308.608 282.031 308.961 285.637 307.051 292.481C305.544 297.883 303.675 300.85 302.75 304.785C302.563 306.105 302.403 307.407 302.19 308.929C301.85 314.813 302.194 322.587 302.194 322.587C302.194 322.587 285.757 326.158 279.609 320.74C279.609 320.74 280.728 307.702 281.617 302.64Z" fill="#50BFA5"/>
<path d="M277.426 292.015C277.426 292.015 283.875 297.591 284.252 297.591C284.494 297.591 293.455 290.687 295.524 285.015C296.667 281.879 294.269 278.371 291.529 278.382C289.63 278.39 288.786 278.903 285.022 282.227C281.258 285.552 277.426 292.015 277.426 292.015Z" fill="#466EB6"/>
<path d="M295.766 268.426L298.186 269.815C298.186 269.815 297.552 270.881 296.468 270.307C295.147 269.606 295.766 268.426 295.766 268.426Z" fill="white"/>
<path d="M142.472 298.142C142.283 297.573 144.924 297.114 145.064 296.539C145.205 295.963 141.73 295.919 141.606 295.413C141.376 294.482 145.414 295.217 145.334 294.782C145.255 294.346 141.127 293.373 141.573 292.626C142.019 291.879 145.753 294.103 145.866 293.596C145.979 293.089 142.216 291.855 142.283 290.744C142.319 290.15 148.46 293.706 149.172 293.383C149.884 293.06 148.406 290.268 148.973 289.854C149.54 289.44 151.167 295.529 151.558 295.732C151.948 295.934 160.245 300.893 163.196 301.682C163.555 300.646 167.782 294.236 168.098 293.257C169.754 294.491 171.453 294.661 173.162 295.786C171.924 299.036 166.24 308.059 165.378 308.467C162.751 309.71 152.591 300.885 150.564 299.375C148.534 297.863 147.372 298.353 146 297.876C144.627 297.399 142.662 298.71 142.472 298.142Z" fill="#F7A491"/>
<path d="M198.843 274.596C197.322 270.352 193.35 267.784 189.213 268.578C187.944 266.431 185.827 264.839 183.525 264.322C178.983 263.303 172.84 265.182 173.006 270.219C171.244 273.603 171.176 278.441 173.872 281.015C172.934 285.565 177.003 289.965 182.293 289.805C184.135 292.986 187.644 295.032 191.134 294.595C191.971 294.491 193.249 294.272 193.46 294.326C193.194 294.276 199.066 298.99 204.042 291.74C209.119 284.342 205.552 275.385 198.843 274.596Z" fill="#184655"/>
<path d="M184.582 315.514C184.733 315.58 182.586 318.477 180.495 320.527C178.808 322.743 177.227 325.367 176.682 328.227C175.855 332.577 176.543 354.066 175.823 355.595C169.634 361.932 165.153 377.834 163.895 382.686C163.65 383.631 163.153 384.483 162.465 385.147L162.74 390.629L165.815 393.596C165.815 393.596 165.131 389.128 166.497 385.814C166.497 385.814 182.078 361.101 183.003 359.212C184.77 353.833 191.205 326.27 191.205 326.27L192.698 319.935C192.698 319.935 184.595 315.519 184.582 315.514Z" fill="#F7A491"/>
<path d="M159.094 386.911C159.094 386.911 161.04 390.052 161.206 391.276C161.372 392.5 162.409 395.277 163.555 395.452C163.816 395.492 168.274 395.835 168.242 395.251C168.217 394.805 166.603 394.168 165.854 393.626C164.558 392.689 162.547 385.057 162.547 385.057C162.547 385.057 159.178 385.933 159.094 386.911Z" fill="#355389"/>
<path d="M185.23 281.95C185.23 281.95 191.751 269.668 193.337 267.057C194.923 264.447 199.056 254.071 199.204 253.662C199.351 253.254 196.358 248.344 197.026 248.176C197.694 248.008 198.433 250.764 199.146 250.435C199.859 250.106 201.942 243.469 202.348 243.798C203.108 244.415 201.226 247.915 201.631 248.136C202.036 248.356 203.263 244.284 204.059 244.404C204.855 244.524 202.546 248.136 202.768 248.455C202.991 248.774 205.388 245.371 205.822 246.096C206.057 246.49 203.618 249.068 204.086 249.309C204.554 249.55 206.725 247.887 206.955 248.366C207.184 248.846 204.948 249.503 204.279 250.796C203.61 252.09 202.471 252.649 201.998 255.044C201.524 257.439 200.817 266.105 198.394 270.429C195.971 274.753 190.642 284.323 190.642 284.323L185.23 281.95Z" fill="#F79C8D"/>
<path d="M197.897 325.037C197.897 325.037 207.933 347.511 207.997 351.462C208.051 354.849 206.243 373.851 206.748 389.676C206.766 390.248 207.457 391.007 208.462 391.49C209.028 391.761 211.761 393.04 211.761 393.04L212.136 394.064L202.725 393.362L202.591 390.671C202.591 390.671 198.845 366.998 199.227 360.303C199.287 359.251 199.775 352.954 199.775 352.954L188.457 330.068L195.575 320.271L197.897 325.037Z" fill="#F7A491"/>
<path d="M174.898 352.034C174.9 352.037 174.901 352.037 174.902 352.033C174.901 352.033 174.898 352.034 174.898 352.034Z" fill="#04B851"/>
<path d="M189.248 288.599C189.518 286.871 192.071 282.547 192.474 281.487C192.474 281.487 189.515 277.547 187.112 277.845C187.112 277.845 183.883 283.452 182.047 283.64C180.211 283.829 173.754 284.122 172.622 284.841C171.49 285.56 166.688 293.284 166.688 293.284C166.688 293.284 171.003 297.9 172.74 297.89C172.74 297.89 173.663 295.987 174.03 295.571C174.292 296.455 178.313 310.101 178.307 313.192L178.338 313.218C182.097 316.411 187.582 315.673 190.481 311.583C190.481 311.583 190.14 307.33 190.334 303.407C190.636 297.262 191.824 293.996 189.248 288.599Z" fill="#3C8F7C"/>
<path d="M210.174 341.388L190.477 311.583C189.262 312.099 188.114 312.547 186.816 312.81C183.991 313.381 181.163 313.289 178.303 313.192C178.303 313.304 178.298 313.402 178.287 313.485C177.958 315.942 174.846 319.746 174.205 327.202C173.477 335.666 173.917 350.367 174.164 351.332C187.258 349.665 206.458 345.471 210.174 341.388Z" fill="#F7CC7F"/>
<path d="M178.727 278.672C178.727 278.672 179.419 282.58 179.281 284.121C179.142 285.662 179.809 290.629 182.8 290.646C185.792 290.662 183.368 284.33 183.087 282.82C182.805 281.309 182.738 276.634 182.738 276.634L178.727 278.672Z" fill="#F7A491"/>
<path d="M182.8 278.98C182.753 277.701 182.738 276.634 182.738 276.634L178.727 278.672C178.727 278.672 178.868 279.471 179.01 280.489C180.767 280.873 182.039 280.165 182.8 278.98Z" fill="#04B851"/>
<path d="M177.253 267.887C177.253 267.887 175.707 268.822 175.142 270.85C174.577 272.877 175.22 278.107 179.213 279.369C183.206 280.632 184.936 276.49 184.114 273.252C183.291 270.013 181.502 265.913 177.253 267.887Z" fill="#F7A491"/>
<path d="M184.624 271.997C184.546 272.867 184.106 273.531 183.641 273.482C183.177 273.432 182.863 272.687 182.942 271.817C183.02 270.947 183.46 270.282 183.924 270.332C184.389 270.382 184.702 271.127 184.624 271.997Z" fill="#F7A491"/>
<path d="M176.299 275.348C176.768 276.108 176.767 277.005 176.295 277.351C175.824 277.697 175.062 277.361 174.593 276.6C174.124 275.84 174.126 274.944 174.597 274.598C175.068 274.252 175.83 274.588 176.299 275.348Z" fill="#F7A491"/>
<path d="M202.694 395.237H214.584C215.023 395.196 215.13 394.825 214.978 394.595C214.664 394.124 213.277 393.777 211.718 393.026C208.983 393.324 203.028 391.367 202.597 390.71C202.348 392.025 202.45 395.181 202.694 395.237Z" fill="#355389"/>
<path d="M179.293 276.214L181.845 275.427C181.845 275.427 182.076 276.479 180.964 276.86C179.607 277.324 179.293 276.214 179.293 276.214Z" fill="white"/>
<path d="M114.548 214.516C114.881 214.53 115.791 214.849 117.123 217.485C118.824 220.851 121.309 231.019 121.309 231.019L113.89 233.913L112.937 231.791L111.367 215.452C111.367 215.452 114.456 214.512 114.548 214.516Z" fill="#3C8F7C"/>
<path d="M104.74 213.05C106.861 213.053 112.11 213.701 114.547 214.516C114.547 214.516 116.336 230.628 112.935 242.87C112.174 245.611 113.565 254.231 113.565 254.231L91.582 253.927C91.582 253.927 94.1863 233.088 93.2053 229.722C92.2243 226.356 92.2009 214.625 92.2009 214.625C92.2009 214.625 92.3514 214.6 97.1399 213.733C99.3731 213.329 102.475 213.047 104.74 213.05Z" fill="#96D9C9"/>
<path d="M102.182 284.134C102.182 284.134 102.668 290.013 103.562 291.641C104.456 293.269 103.515 296.037 103.468 296.417C103.421 296.797 101.586 297.339 98.6678 297.014C95.7498 296.688 95.797 295.983 96.0323 294.843C96.2676 293.704 97.8205 292.238 97.9146 291.153C98.0087 290.068 97.0203 286.16 97.0203 286.16L102.182 284.134Z" fill="#F7A491"/>
<path d="M111.084 249.378C111.084 249.378 126.259 248.496 129.648 250.645C133.037 252.795 127.241 263.344 127.241 263.344C127.241 263.344 116.681 262.834 95.999 264.084C91.1012 264.38 90.6791 250.709 91.5949 249.578C92.5106 248.447 111.084 249.378 111.084 249.378Z" fill="#355389"/>
<path d="M98.3029 297.47C95.2983 297.135 95.67 295.589 95.9123 294.416C96.064 293.681 96.926 292.815 97.4397 291.995C97.7083 292.219 98.1452 292.615 99.4499 293.019C100.805 293.438 102.662 292.608 103.846 292.089C104.268 293.733 104.287 295.83 104.248 296.148C104.199 296.539 101.308 297.806 98.3029 297.47Z" fill="#13375B"/>
<path d="M99.9679 260.749C100.574 265.554 103.576 289.474 103.576 289.474L96.6111 290.379C96.6111 290.379 88.0458 259.157 88.4851 254.381C88.9244 249.606 92.1305 249.204 92.1305 249.204C92.1305 249.204 98.3633 248.03 99.9679 260.749Z" fill="#466EB6"/>
<path d="M91.967 216.416C94.0223 215.608 95.0278 235.005 95.3049 242.988C98.9447 243.355 105.289 242.991 106.868 242.867C107.611 242.808 109.325 242.151 110.063 242.05C110.82 241.946 111.507 241.892 111.879 241.96C112.016 241.984 115.81 243.61 116.134 243.966C116.537 244.408 117.625 245.523 117.441 246.005C117.257 246.487 115.348 244.662 115.348 244.662L114.415 244.113C115.577 245.302 117.792 246.867 117.473 247.437C117.162 247.993 115.163 246.404 113.739 245.322C114.961 246.477 116.479 248.545 116.129 248.868C115.815 249.158 114.088 246.764 112.243 246.074C111.56 245.819 110.878 246.526 110.34 246.612C109.945 246.674 109.335 246.808 108.947 246.693L106.95 246.099C106.269 246.164 106.252 246.586 105.565 246.739C104.767 246.917 103.458 247.104 102.442 247.364C96.5919 248.861 94.6408 249.556 92.8494 249.555C87.4241 249.551 87.1094 218.324 91.967 216.416Z" fill="#F7A491"/>
<path d="M88.0628 234.626C87.6777 226.448 87.7341 216.368 92.111 214.649C93.8381 213.97 96.8825 218.05 96.3348 234.792C93.9984 234.994 90.568 235.157 88.0628 234.626Z" fill="#3C8F7C"/>
<path d="M122.545 289.163C122.545 289.163 121.937 291.204 123.026 292.554C124.114 293.903 128.636 295.227 129.229 295.958C129.823 296.689 129.778 297.312 129.778 297.312L117.086 296.946L117.224 292.931L117.809 290.047L122.545 289.163Z" fill="#F7A491"/>
<path d="M123.818 293.226C123.818 293.226 120.557 294.608 118.982 293.79C117.406 292.972 117.454 292.745 116.998 293.05C116.542 293.355 116.379 297.119 116.379 297.119L130.65 297.558C131.644 297.534 132.146 296.768 131.339 296.112C130.786 295.662 130.146 295.362 129.783 295.143C128.667 294.473 123.818 293.226 123.818 293.226Z" fill="#13375B"/>
<path d="M122.069 253.146C123.05 250.984 125.281 248.169 129.206 249.864C132.95 251.481 133.955 255.455 132.774 259.525C131.593 263.594 123.816 287.517 123.545 290.806L117.336 290.849C117.336 290.849 118.464 271.907 118.741 267.328C119.007 262.923 120.371 256.888 122.069 253.146Z" fill="#466EB6"/>
<path d="M132.147 231.112H111.391C110.843 231.112 110.348 231.46 110.139 231.995L103.749 248.375H92.3061C91.9861 248.375 91.7266 248.647 91.7266 248.983C91.7266 249.319 91.9861 249.592 92.3061 249.592H124.872C125.768 249.592 126.58 249.039 126.946 248.181L133.381 233.116C133.783 232.175 133.128 231.112 132.147 231.112Z" fill="#12353D"/>
<path d="M120.976 240.65C120.835 241.386 120.225 241.878 119.612 241.749C118.999 241.62 118.615 240.919 118.755 240.184C118.896 239.448 119.506 238.956 120.119 239.085C120.733 239.214 121.116 239.914 120.976 240.65Z" fill="white"/>
<path d="M109.67 193.372C109.044 193.152 108.429 192.903 107.834 192.603C107.161 192.263 106.29 191.865 105.74 191.776C104.582 191.589 102.592 191.714 101.493 192.962C100.124 194.518 97.6915 193.243 98.1813 201.39C98.736 210.611 103.631 209.599 103.75 209.443C103.869 209.287 108.116 203.544 108.116 203.544C108.116 203.544 109.601 206.946 109.601 206.821C109.601 206.7 117.184 196.023 109.67 193.372Z" fill="#0E2E35"/>
<path d="M105.954 210.124L106.376 213.418C106.376 213.418 107.323 218.165 106.105 219.081C104.887 219.996 100.926 213.283 100.926 213.283L101.344 204.934L105.954 210.124Z" fill="#F7A491"/>
<path d="M101.215 207.64C102.221 210.488 104.617 212.238 106.318 212.917L105.959 210.124L101.35 204.934L101.215 207.64Z" fill="#04B851"/>
<path d="M105.706 195.849C108.286 195.412 110.601 197.586 110.536 200.292C110.508 201.468 110.416 202.937 110.183 204.518C109.622 208.322 107.144 211.671 105.506 211.372C103.868 211.072 99.7456 207.791 100.472 202.379C100.92 199.037 102.997 196.307 105.706 195.849Z" fill="#F7A491"/>
<path d="M101.602 203.025C101.464 203.862 100.824 204.443 100.173 204.324C99.5226 204.206 99.1071 203.431 99.2453 202.595C99.3834 201.758 100.023 201.177 100.674 201.295C101.325 201.414 101.74 202.189 101.602 203.025Z" fill="#F7A491"/>
<path d="M100.672 201.296C100.672 201.296 102.653 201.811 103.388 200.477C104.123 199.142 106.752 196.263 110.093 197.457C113.434 198.651 107.153 194.554 106.885 194.554C106.618 194.554 103.41 194.531 103.41 194.531C103.41 194.531 100.938 196.661 100.849 196.895C100.76 197.129 100.047 199.681 100.047 199.681L100.672 201.296Z" fill="#0E2E35"/>
<path d="M104.303 206.863L107.907 207.585C107.907 207.585 107.563 209.007 105.969 208.737C104.026 208.409 104.303 206.863 104.303 206.863Z" fill="white"/>
<path d="M416.607 394.987H40.778C40.0421 394.987 39.4453 395.612 39.4453 396.383C39.4453 397.153 40.0421 397.779 40.778 397.779H416.607C417.343 397.779 417.939 397.153 417.939 396.383C417.94 395.612 417.343 394.987 416.607 394.987Z" fill="#12353D"/>
<path d="M339.691 293.598C339.501 293.029 342.142 292.57 342.283 291.995C342.423 291.419 338.948 291.375 338.824 290.869C338.595 289.938 342.632 290.673 342.553 290.238C342.473 289.803 338.345 288.83 338.792 288.083C339.238 287.335 342.972 289.559 343.085 289.052C343.198 288.545 339.435 287.311 339.502 286.2C339.538 285.606 345.679 289.163 346.39 288.839C347.103 288.516 345.625 285.724 346.191 285.31C346.758 284.896 348.386 290.985 348.777 291.188C349.167 291.39 357.463 296.349 360.415 297.138C360.773 296.102 361.548 294.706 361.864 293.727C363.52 294.961 364.75 295.581 366.459 296.706C365.221 299.957 363.459 303.515 362.596 303.923C359.969 305.166 349.81 296.341 347.782 294.831C345.752 293.32 344.59 293.81 343.218 293.332C341.846 292.855 339.88 294.167 339.691 293.598Z" fill="#F7A491"/>
<path d="M370.335 287.402C371.119 290.786 366.933 298.332 366.933 298.332C366.933 298.332 360.97 295.385 359.922 294.115C359.922 294.115 363.973 286.793 364.239 286.347C365.441 284.332 367.073 284.33 368.137 284.461C368.991 284.566 370.335 287.402 370.335 287.402Z" fill="#EAB765"/>
</svg>
